<?xml version="1.0" encoding="UTF-8" standalone="no"?>
<!DOCTYPE svg PUBLIC "-//W3C//DTD SVG 1.1//EN" "http://www.w3.org/Graphics/SVG/1.1/DTD/svg11.dtd">
<svg width="100%" height="100%" viewBox="0 0 643 187" version="1.1" xmlns="http://www.w3.org/2000/svg" xmlns:xlink="http://www.w3.org/1999/xlink" xml:space="preserve" style="fill-rule:evenodd;clip-rule:evenodd;stroke-linejoin:round;stroke-miterlimit:1.41421;">
    <g id="Warcraft-logo" transform="matrix(3.82351,0,0,3.82351,-64.877,-277.31)">
        <g id="T-decal" transform="matrix(0.26154,0,0,0.26154,-2.59401,2.54832)">
            <path d="M713.028,300.477L643.76,300.493L655.562,313.081L701.222,313.273L713.028,300.477Z" style="fill:url(#_Linear1);"/>
            <path d="M701.222,313.273L655.562,313.081L643.646,327.264L651.44,324.495L703.139,324.173L712.986,327.386L701.222,313.273Z" style="fill:rgb(137,55,43);"/>
            <path d="M688.371,322.73L677.581,314.525L677.751,410.582L699.386,421.217C693.248,412.658 689.918,402.422 689.685,390.334L688.371,322.73Z" style="fill:url(#_Linear2);"/>
            <g transform="matrix(-1,0,0,1,1355.44,-0.211504)">
                <path d="M689.48,322.984L677.82,314.764L677.751,410.582L698.24,421.322C694.006,415.002 691.174,407.137 690.777,396.586L689.48,322.984Z" style="fill:url(#_Linear3);"/>
            </g>
            <g transform="matrix(1,0,0,19.342,0,-7700.98)">
                <path d="M677.704,419.326L699.796,419.936L657.108,419.922L677.704,419.326Z" style="fill:rgb(148,68,43);"/>
            </g>
            <g transform="matrix(3.96172e-17,-0.646998,19.342,1.18436e-15,-7409.39,751.747)">
                <path d="M677.704,419.326L697.87,419.948L655.673,419.94L677.704,419.326Z" style="fill:rgb(189,108,24);"/>
            </g>
            <g transform="matrix(3.89369e-17,0.635888,-19.342,1.18436e-15,8766.17,-117.863)">
                <path d="M677.704,419.326L699.684,419.933L657.91,419.935L677.704,419.326Z" style="fill:rgb(166,36,49);"/>
            </g>
        </g>
        <g id="F-decal" transform="matrix(0.26154,0,0,0.26154,-2.59401,2.54832)">
            <path d="M617.016,323.322L604.55,322.157L604.55,411.794L624.34,421.133C620.442,413.216 618.341,404.287 617.301,394.761L617.016,323.322Z" style="fill:url(#_Linear4);"/>
            <g transform="matrix(-1,0,0,1,1209.1,0)">
                <path d="M616.321,331.084L604.55,322.157L604.55,411.794L614.946,421.319L619.546,416.441L617.527,392.929L616.321,331.084Z" style="fill:url(#_Linear5);"/>
            </g>
            <path d="M604.55,411.794L624.535,421.225L593.873,421.482L589.038,416.745L604.55,411.794Z" style="fill:rgb(148,68,43);"/>
            <path d="M640.879,361.051L608.03,361.051L617.176,370.105L641.207,372.562L640.879,361.051Z" style="fill:rgb(181,113,46);"/>
            <g transform="matrix(1,0,0,1,0,-9.96303)">
                <path d="M641.125,360.705L617.222,360.811L608.03,371.014L639.828,371.014L641.125,360.705Z" style="fill:url(#_Linear6);"/>
            </g>
            <g transform="matrix(1,0,0,1,-36.6925,-49.9348)">
                <path d="M639.061,369.448L611.252,374.044L629.37,381.096L641.243,372.092C640.545,371.193 639.835,370.301 639.061,369.448Z" style="fill:rgb(176,88,0);"/>
            </g>
            <g transform="matrix(1,0,0,1,-36.6925,-49.9348)">
                <path d="M639.061,369.448L611.937,374.311L662.216,338.569L661.983,352.3L639.061,369.448Z" style="fill:url(#_Linear7);"/>
            </g>
            <g transform="matrix(1,0,0,1,-36.6925,-49.9348)">
                <path d="M639.061,369.448L641.243,372.092C644.689,372.378 649.979,373.274 653.707,373.306C658.215,370.618 660.782,368.783 665.054,365.694L661.983,352.3L639.061,369.448Z" style="fill:rgb(176,88,0);"/>
            </g>
            <g transform="matrix(1,0,0,1,-36.6925,-49.9348)">
                <path d="M661.983,352.3L678.062,367.018L677.949,377.937L665.024,365.562L661.983,352.3Z" style="fill:rgb(250,209,56);"/>
            </g>
            <g transform="matrix(1,0,0,1,-36.6925,-49.9348)">
                <path d="M661.983,352.3L678.062,367.018L677.853,355.575L662.202,338.58L661.983,352.3Z" style="fill:rgb(199,85,35);"/>
            </g>
            <g transform="matrix(4.09084e-17,-0.668084,1,6.12323e-17,219.973,767.359)">
                <path d="M608.169,411.794L622.876,420.92L590.678,421.236L608.169,411.794Z" style="fill:rgb(243,190,19);"/>
            </g>
        </g>
        <g id="A-decal" transform="matrix(0.26154,0,0,0.26154,-2.59401,2.54832)">
            <g transform="matrix(-0.0108318,-0.999941,0.999941,-0.0108318,227.829,942.73)">
                <path d="M580.438,357.269L585.106,362.676L577.071,362.646L580.438,357.269Z" style="fill:rgb(232,222,49);"/>
            </g>
            <path d="M555.877,292.534L511.972,317.089L528.688,317.893L544.718,310.826L555.877,292.534Z" style="fill:url(#_Linear8);"/>
            <path d="M528.688,317.893L511.972,317.089C525.144,323.077 506.154,381.922 498.641,414.557C500.017,417.024 501.835,419.232 504.196,421.123L509.935,409.566L528.688,317.893Z" style="fill:url(#_Linear9);"/>
            <path d="M534.586,314.957L544.566,310.25L570.359,408.358L551.293,421.073C554.378,407.251 555.268,390.539 550.817,377.507C544.112,357.875 534.766,330.634 534.586,314.957Z" style="fill:url(#_Linear10);"/>
            <path d="M528.688,317.893L534.672,314.914L536.268,325.019L526.862,372.147L527.333,377.084C526.418,382.313 526.293,391.646 526.293,391.646C526.293,391.646 522.408,396.138 522.01,397.497C519.697,405.397 524.633,414.243 529.54,421.03L509.935,409.566L528.688,317.893Z" style="fill:url(#_Linear11);"/>
            <path d="M555.877,292.534L544.533,310.124L570.377,408.428L581.933,421.064L586.178,416.541C572.456,373.745 552.324,311.449 555.877,292.534Z" style="fill:rgb(230,148,37);"/>
            <g transform="matrix(1,0,0,2.52857,-1.77636e-15,-644.847)">
                <path d="M570.359,416.522L585.788,419.922L580.981,421.788L551.181,421.582L570.359,416.522Z" style="fill:rgb(148,68,43);"/>
            </g>
            <path d="M584.18,361.75L569.745,365.971L563.236,362.482C567.998,360.222 573.112,358.727 578.79,358.456L584.18,361.75Z" style="fill:rgb(182,112,49);"/>
            <g transform="matrix(1,0,0,-1,0,640.135)">
                <path d="M518.579,312.348L528.688,322.242L511.972,323.046L518.579,312.348Z" style="fill:rgb(199,121,47);"/>
            </g>
            <path d="M584.268,353.622C579.669,353.349 573.123,354.397 566.661,356.026L563.236,362.482C568.667,360.526 573.879,359.115 578.79,358.456L584.268,353.622Z" style="fill:rgb(253,223,86);"/>
            <g transform="matrix(1,0,0,1,-42.9984,19.9053)">
                <path d="M593.011,354.839L568.887,372.216L561.798,366.785C566.399,362.231 591.946,345.621 597.664,345.93L593.011,354.839Z" style="fill:rgb(182,112,49);"/>
            </g>
            <g transform="matrix(1,0,0,1,-42.878,19.5502)">
                <path d="M588.798,341.863C584.199,341.591 573.807,349.258 568.817,354.232L561.678,367.141C567.148,362.399 592.633,346.944 597.544,346.285L588.798,341.863Z" style="fill:url(#_Linear12);"/>
            </g>
            <g transform="matrix(0.888594,0,0,0.866734,57.2956,54.4929)">
                <path d="M509.389,409.668L531.52,422.936L502.158,423.391L496.072,415.497L509.389,409.668Z" style="fill:rgb(148,68,43);"/>
            </g>
        </g>
        <g id="R-decal">
            <g transform="matrix(0.500589,0,0,0.261294,-111.375,2.64874)">
                <path d="M446.862,408.61L457.135,421.481L436.445,421.343L446.862,408.61Z" style="fill:rgb(148,68,43);"/>
            </g>
            <g transform="matrix(0.26154,0,0,0.26154,-2.59401,2.54832)">
                <path d="M459.889,294.023L412.769,321.013L418.396,324.808L436.9,322.659L449.624,315.76L455.932,311.233L459.889,294.023Z" style="fill:url(#_Linear13);"/>
            </g>
            <g transform="matrix(0.26154,0,0,0.26154,-2.59401,2.54832)">
                <path d="M459.889,294.023L501.739,339.285L484.493,341.341L455.932,311.233L459.889,294.023Z" style="fill:url(#_Linear14);"/>
            </g>
            <g transform="matrix(0.26154,0,0,0.26154,-2.59401,2.54832)">
                <path d="M472.299,367.015L501.723,339.287L484.493,341.341L456.711,370.01L472.299,367.015Z" style="fill:rgb(156,74,50);"/>
            </g>
            <g transform="matrix(0.26154,0,0,0.26154,-2.59401,2.54832)">
                <path d="M472.333,366.983L492.801,376.365L480.872,383.668L456.711,370.01L472.333,366.983Z" style="fill:rgb(212,119,31);"/>
            </g>
            <g transform="matrix(0.26154,0,0,0.26154,-2.59401,2.54832)">
                <path d="M491.808,419.746L495.45,414.683C493.034,403.874 492.929,390.112 492.824,376.352L480.872,383.668C477.258,393.764 480.591,408.79 485.633,409.631L491.808,419.746Z" style="fill:url(#_Linear15);"/>
            </g>
            <g transform="matrix(0.26154,0,0,0.26154,-2.59401,2.54832)">
                <path d="M451.098,319.514L469.31,338.947L484.493,341.341L455.932,311.233L451.098,319.514Z" style="fill:rgb(227,190,46);"/>
            </g>
            <g transform="matrix(0.265604,0,0,0.236394,5.72982,13.0901)">
                <path d="M446.862,408.61L457.104,414.039L453.746,421.279L439.63,421.436L446.862,408.61Z" style="fill:rgb(148,68,43);"/>
            </g>
            <g transform="matrix(0.26154,0,0,0.26154,-2.59401,2.54832)">
                <path d="M478.289,421.224C470.162,417.385 466.551,401.313 468.493,387.068L480.885,383.417C480.219,396.316 481.142,406.274 485.633,409.631L478.289,421.224Z" style="fill:url(#_Linear16);"/>
            </g>
            <g transform="matrix(0.26154,0,0,0.26154,-2.59401,2.54832)">
                <path d="M451.146,319.565L428.897,329.467L412.764,321.013L436.9,322.659L455.932,311.233L451.146,319.565Z" style="fill:rgb(176,88,0);"/>
            </g>
            <g transform="matrix(0.26154,0,0,0.26154,-2.59401,2.54832)">
                <path d="M439.421,322.969L428.895,329.468L427.597,397.432L422.253,419.531L439.37,408.61L439.421,322.969Z" style="fill:url(#_Linear17);"/>
            </g>
            <g transform="matrix(0.26154,0,0,0.26154,-2.59401,2.54832)">
                <path d="M439.421,323.016L451.146,319.565L452.871,407.44L458.507,421.125L439.37,408.61L439.421,323.016Z" style="fill:url(#_Linear18);"/>
            </g>
            <g transform="matrix(0.26154,0,0,0.26154,-2.59401,2.54832)">
                <path d="M439.37,367.375L469.356,338.9L484.493,341.341L456.711,370.01L439.37,367.375Z" style="fill:rgb(242,235,116);"/>
            </g>
            <g transform="matrix(0.26154,0,0,0.26154,-2.59401,2.54832)">
                <path d="M439.37,367.375L468.286,387.129L480.885,383.417L456.711,370.01L439.37,367.375Z" style="fill:url(#_Linear19);"/>
            </g>
        </g>
        <g id="C-decal">
            <g transform="matrix(0.26154,0,0,0.26154,-2.59401,2.54832)">
                <path d="M419.661,417.837L412.041,398.193L408.5,414.5L419.661,417.837Z" style="fill:rgb(236,227,62);"/>
            </g>
            <g transform="matrix(0.26154,0,0,0.26154,-2.59401,2.54832)">
                <path d="M420.995,304.72L406,302.5L404.456,314.635L420.995,304.72Z" style="fill:rgb(184,109,41);"/>
            </g>
            <g transform="matrix(0.26154,0,0,0.26154,-2.59401,2.54832)">
                <path d="M420.995,304.72L387,269.743L389.339,286.285L406,302.5L420.995,304.72Z" style="fill:url(#_Linear20);"/>
            </g>
            <g transform="matrix(0.26154,0,0,0.26154,-2.59401,2.54832)">
                <path d="M389.339,286.285L368.5,308.5L381.982,311.729L391.923,301.472L389.339,286.285Z" style="fill:rgb(141,58,50);"/>
            </g>
            <g transform="matrix(0.26154,0,0,0.26154,-2.07093,32.1023)">
                <path d="M379.966,292.004L366.5,296L387.797,316.5L389.755,301.789L379.966,292.004Z" style="fill:rgb(205,111,47);"/>
            </g>
            <g transform="matrix(0.26154,0,0,0.26154,-2.59401,2.54832)">
                <path d="M368.5,308.5L368.5,409L381.966,405.004L381.982,311.729L368.5,308.5Z" style="fill:url(#_Linear21);"/>
            </g>
            <g transform="matrix(0.26154,0,0,0.26154,-2.59401,2.54832)">
                <path d="M406,302.5L389.339,286.285L391.923,301.472L404.475,314.484L406,302.5Z" style="fill:rgb(230,221,61);"/>
            </g>
            <g transform="matrix(0.26154,0,0,0.26154,-2.59401,2.54832)">
                <path d="M387,269.743L354.641,305.025L368.5,308.5L389.339,286.285L387,269.743Z" style="fill:url(#_Linear22);"/>
            </g>
            <g transform="matrix(0.26154,0,0,0.26154,-1.15555,36.1562)">
                <path d="M363,280.5L349.043,283.222L382.463,318.976L384.297,300.996L363,280.5Z" style="fill:url(#_Linear23);"/>
            </g>
            <g transform="matrix(0.26154,0,0,0.26154,-1.15555,36.1562)">
                <path d="M384.297,300.996L382.463,318.976C393.402,309.677 404.223,300.194 414.161,289.337L403,286L384.297,300.996Z" style="fill:rgb(148,68,43);"/>
            </g>
            <g transform="matrix(0.26154,0,0,0.26154,-1.15555,36.1562)">
                <path d="M386.25,286.284L384.297,300.996L403,286L406.517,269.804L386.25,286.284Z" style="fill:rgb(222,141,40);"/>
            </g>
            <g transform="matrix(0.26154,0,0,0.26154,-2.59401,2.54832)">
                <path d="M354.641,305.025L354.572,411.716L368.5,409L368.5,308.5L354.641,305.025Z" style="fill:rgb(231,193,42);"/>
            </g>
        </g>
        <g id="letter-shapes">
            <path d="M108.679,82.403L103.061,85.694L99.894,82.458L98.035,84.375L98.035,108.166L99.921,110.052L105.48,105.577L108.017,112.163L98.816,120.622L89.448,110.521L89.448,82.024L98.619,72.118L108.679,82.403ZM90.232,82.332L90.232,110.213L98.86,119.516L107.093,111.947L105.134,106.863L99.865,111.104L97.251,108.492L97.251,84.057L99.892,81.334L103.193,84.708L107.415,82.233L98.635,73.256L90.232,82.332Z"/>
            <path d="M129.689,91.335L122.308,98.303L127.069,100.484L127.069,107.836L127.069,107.864L127.07,107.892L127.07,107.92L127.071,107.948L127.072,107.976L127.073,108.005L127.075,108.034L127.076,108.063L127.078,108.092L127.08,108.121L127.082,108.151L127.085,108.18L127.09,108.24L127.096,108.3L127.103,108.361L127.111,108.423L127.119,108.484L127.128,108.546L127.137,108.608L127.148,108.67L127.158,108.733L127.169,108.795L127.181,108.858L127.193,108.92L127.206,108.982L127.219,109.044L127.232,109.106L127.246,109.168L127.26,109.229L127.274,109.29L127.289,109.35L127.304,109.41L127.319,109.469L127.334,109.528L127.349,109.585L127.365,109.643L127.38,109.699L127.396,109.755L127.411,109.809L127.427,109.863L127.442,109.916L127.457,109.967L127.473,110.018L127.488,110.067L127.517,110.162L127.546,110.252L127.573,110.336L127.599,110.414L127.623,110.485L127.646,110.549L127.666,110.606L127.683,110.655L127.698,110.695L127.719,110.751L127.793,110.949L126.292,113.431L122.263,113.431L122.125,113.331L122.087,113.304L122.05,113.276L122.013,113.248L121.976,113.219L121.939,113.19L121.903,113.161L121.866,113.131L121.83,113.1L121.793,113.07L121.757,113.039L121.721,113.007L121.685,112.975L121.65,112.943L121.614,112.91L121.579,112.877L121.544,112.844L121.509,112.81L121.474,112.775L121.439,112.741L121.404,112.706L121.37,112.67L121.336,112.634L121.302,112.598L121.268,112.561L121.234,112.524L121.2,112.487L121.167,112.449L121.134,112.411L121.101,112.372L121.068,112.333L121.036,112.294L121.003,112.254L120.971,112.214L120.939,112.174L120.907,112.133L120.876,112.092L120.844,112.051L120.813,112.009L120.782,111.966L120.751,111.924L120.721,111.881L120.691,111.837L120.661,111.794L120.631,111.75L120.601,111.705L120.572,111.661L120.543,111.616L120.514,111.57L120.485,111.524L120.457,111.478L120.429,111.432L120.401,111.385L120.374,111.338L120.346,111.29L120.319,111.242L120.292,111.194L120.266,111.145L120.24,111.097L120.214,111.047L120.188,110.998L120.162,110.948L120.137,110.898L120.112,110.847L120.088,110.796L120.064,110.745L120.04,110.693L120.016,110.642L119.993,110.589L119.97,110.537L119.947,110.484L119.924,110.431L119.902,110.378L119.88,110.324L119.859,110.27L119.838,110.215L119.817,110.161L119.796,110.106L119.776,110.05L119.756,109.995L119.737,109.939L119.717,109.882L119.699,109.826L119.68,109.769L119.662,109.712L119.644,109.654L119.627,109.597L119.61,109.539L119.593,109.48L119.577,109.422L119.561,109.363L119.545,109.304L119.53,109.244L119.515,109.184L119.5,109.124L119.486,109.064L119.473,109.003L119.459,108.942L119.446,108.881L119.434,108.82L119.422,108.758L119.41,108.696L119.399,108.634L119.388,108.571L119.377,108.508L119.367,108.445L119.357,108.382L119.348,108.318L119.339,108.255L119.331,108.19L119.323,108.126L119.315,108.061L119.308,107.996L119.302,107.931L119.295,107.866L119.29,107.8L119.284,107.734L119.279,107.668L119.275,107.602L119.271,107.535L119.267,107.468L119.264,107.401L119.262,107.334L119.26,107.266L119.258,107.198L119.257,107.13L119.256,107.062L119.256,106.994L119.256,104.183L116.175,102.166L116.175,107.977L116.176,108.067L116.177,108.154L116.178,108.239L116.18,108.323L116.183,108.406L116.185,108.446L116.187,108.487L116.189,108.526L116.191,108.566L116.194,108.605L116.196,108.644L116.199,108.683L116.202,108.721L116.205,108.759L116.208,108.796L116.212,108.834L116.216,108.871L116.22,108.907L116.224,108.944L116.228,108.98L116.233,109.016L116.238,109.051L116.243,109.087L116.248,109.122L116.253,109.157L116.259,109.191L116.265,109.226L116.271,109.26L116.277,109.294L116.284,109.328L116.291,109.362L116.298,109.395L116.305,109.428L116.312,109.462L116.32,109.495L116.328,109.527L116.336,109.56L116.345,109.593L116.353,109.625L116.362,109.658L116.372,109.69L116.381,109.722L116.391,109.755L116.401,109.787L116.411,109.819L116.422,109.851L116.433,109.883L116.444,109.915L116.455,109.946L116.467,109.978L116.479,110.01L116.492,110.042L116.504,110.074L116.517,110.106L116.53,110.138L116.544,110.17L116.558,110.202L116.572,110.234L116.587,110.266L116.602,110.299L116.617,110.331L116.633,110.364L116.649,110.396L116.665,110.429L116.682,110.461L116.699,110.494L116.716,110.527L116.734,110.561L116.752,110.594L116.771,110.627L116.79,110.661L116.809,110.695L116.829,110.729L116.849,110.763L116.869,110.797L116.89,110.831L116.912,110.866L116.934,110.901L116.956,110.936L116.978,110.971L117.001,111.007L117.025,111.043L117.049,111.079L117.073,111.115L117.098,111.152L117.123,111.188L117.149,111.225L117.175,111.263L117.201,111.3L117.228,111.338L117.256,111.376L117.284,111.415L117.312,111.453L117.341,111.492L117.37,111.531L117.431,111.611L117.493,111.692L117.557,111.774L117.623,111.858L117.691,111.943L117.761,112.03L117.833,112.118L117.907,112.208L117.983,112.299L118.062,112.392L118.142,112.487L118.225,112.584L118.31,112.682L118.961,113.432L105.504,113.432L106.214,112.7L106.277,112.635L106.339,112.57L106.4,112.505L106.46,112.44L106.518,112.376L106.576,112.312L106.633,112.249L106.689,112.186L106.744,112.123L106.798,112.061L106.851,111.999L106.903,111.937L106.954,111.875L107.004,111.814L107.054,111.753L107.102,111.693L107.149,111.633L107.196,111.573L107.242,111.513L107.287,111.454L107.33,111.395L107.374,111.336L107.416,111.277L107.457,111.219L107.498,111.161L107.538,111.103L107.577,111.046L107.615,110.989L107.652,110.932L107.689,110.875L107.725,110.819L107.76,110.763L107.794,110.707L107.828,110.651L107.86,110.595L107.892,110.54L107.924,110.485L107.954,110.43L107.984,110.376L108.014,110.321L108.042,110.267L108.07,110.213L108.097,110.159L108.124,110.105L108.15,110.052L108.175,109.998L108.2,109.945L108.224,109.892L108.247,109.839L108.27,109.787L108.292,109.734L108.314,109.682L108.335,109.629L108.356,109.577L108.376,109.525L108.395,109.473L108.414,109.421L108.432,109.37L108.45,109.318L108.467,109.267L108.484,109.215L108.5,109.164L108.516,109.112L108.531,109.061L108.546,109.01L108.561,108.959L108.574,108.908L108.588,108.857L108.601,108.806L108.613,108.755L108.626,108.704L108.637,108.653L108.649,108.602L108.659,108.551L108.67,108.5L108.68,108.449L108.69,108.398L108.699,108.347L108.708,108.296L108.717,108.245L108.725,108.194L108.733,108.143L108.741,108.092L108.748,108.041L108.755,107.99L108.761,107.939L108.768,107.887L108.774,107.836L108.779,107.784L108.785,107.733L108.79,107.681L108.795,107.629L108.799,107.578L108.804,107.526L108.808,107.474L108.812,107.421L108.815,107.369L108.819,107.317L108.822,107.264L108.825,107.212L108.828,107.159L108.83,107.106L108.832,107.053L108.837,106.946L108.84,106.839L108.843,106.732L108.845,106.623L108.847,106.514L108.848,106.404L108.849,106.294L108.85,106.182L108.85,106.07L108.851,105.957L108.851,105.728L108.851,89.164L103.859,86.552L117.823,78.518L129.689,91.335ZM105.489,86.52L109.635,88.688L109.635,105.728L109.635,105.958L109.635,106.072L109.635,106.186L109.634,106.299L109.633,106.412L109.632,106.525L109.63,106.638L109.627,106.75L109.624,106.862L109.621,106.974L109.616,107.086L109.614,107.142L109.611,107.198L109.608,107.254L109.605,107.31L109.602,107.366L109.598,107.422L109.594,107.477L109.59,107.533L109.586,107.589L109.581,107.645L109.576,107.701L109.571,107.757L109.565,107.813L109.559,107.869L109.553,107.925L109.547,107.981L109.54,108.037L109.533,108.093L109.525,108.149L109.517,108.205L109.509,108.261L109.5,108.317L109.491,108.374L109.481,108.43L109.471,108.486L109.461,108.543L109.45,108.599L109.439,108.656L109.427,108.712L109.415,108.769L109.403,108.826L109.39,108.883L109.376,108.94L109.362,108.996L109.347,109.053L109.332,109.111L109.317,109.168L109.301,109.225L109.284,109.282L109.267,109.34L109.249,109.397L109.231,109.455L109.212,109.513L109.193,109.571L109.173,109.628L109.152,109.686L109.131,109.745L109.109,109.803L109.087,109.861L109.064,109.92L109.041,109.978L109.016,110.037L108.992,110.095L108.966,110.154L108.94,110.213L108.913,110.272L108.886,110.332L108.857,110.391L108.829,110.45L108.799,110.51L108.769,110.57L108.738,110.63L108.706,110.69L108.674,110.75L108.641,110.81L108.607,110.871L108.573,110.931L108.537,110.992L108.501,111.053L108.465,111.114L108.427,111.175L108.389,111.237L108.35,111.298L108.31,111.36L108.269,111.422L108.228,111.484L108.185,111.546L108.142,111.609L108.098,111.672L108.054,111.735L108.008,111.798L107.962,111.861L107.914,111.924L107.866,111.988L107.817,112.052L107.767,112.116L107.716,112.181L107.665,112.245L107.612,112.31L107.559,112.375L107.505,112.441L107.449,112.506L107.393,112.572L107.336,112.638L107.327,112.648L117.253,112.648L117.227,112.616L117.152,112.525L117.079,112.435L117.008,112.346L116.939,112.258L116.872,112.172L116.806,112.087L116.743,112.003L116.711,111.96L116.681,111.919L116.65,111.878L116.62,111.836L116.591,111.795L116.562,111.755L116.533,111.714L116.505,111.674L116.477,111.634L116.45,111.594L116.423,111.554L116.396,111.514L116.37,111.475L116.344,111.435L116.319,111.396L116.294,111.357L116.269,111.318L116.245,111.279L116.221,111.241L116.197,111.202L116.174,111.164L116.152,111.125L116.129,111.087L116.108,111.049L116.086,111.01L116.065,110.972L116.044,110.934L116.024,110.896L116.004,110.858L115.984,110.82L115.965,110.782L115.946,110.745L115.927,110.707L115.909,110.669L115.891,110.631L115.874,110.593L115.856,110.556L115.84,110.518L115.823,110.48L115.807,110.442L115.791,110.404L115.776,110.366L115.761,110.329L115.746,110.291L115.732,110.253L115.718,110.215L115.704,110.177L115.691,110.139L115.678,110.1L115.665,110.062L115.653,110.024L115.641,109.986L115.629,109.947L115.618,109.909L115.607,109.87L115.596,109.832L115.586,109.793L115.576,109.754L115.566,109.715L115.557,109.676L115.548,109.637L115.539,109.598L115.53,109.559L115.522,109.519L115.514,109.48L115.506,109.44L115.499,109.4L115.492,109.36L115.485,109.32L115.478,109.28L115.472,109.24L115.466,109.199L115.46,109.158L115.455,109.118L115.45,109.077L115.445,109.035L115.44,108.994L115.435,108.952L115.431,108.911L115.427,108.869L115.423,108.827L115.42,108.784L115.417,108.742L115.413,108.699L115.411,108.656L115.408,108.612L115.405,108.569L115.403,108.525L115.401,108.481L115.399,108.436L115.396,108.347L115.394,108.257L115.392,108.165L115.391,108.072L115.391,107.979L115.391,100.714L120.04,103.759L120.04,106.992L120.041,107.056L120.041,107.119L120.042,107.181L120.044,107.244L120.046,107.306L120.048,107.368L120.051,107.429L120.054,107.491L120.058,107.552L120.062,107.613L120.066,107.673L120.071,107.734L120.077,107.794L120.082,107.854L120.089,107.914L120.095,107.973L120.102,108.032L120.109,108.091L120.117,108.15L120.125,108.208L120.134,108.266L120.142,108.324L120.152,108.382L120.161,108.439L120.171,108.496L120.181,108.553L120.192,108.609L120.203,108.666L120.215,108.722L120.226,108.777L120.239,108.833L120.251,108.888L120.264,108.943L120.277,108.998L120.291,109.052L120.304,109.106L120.319,109.16L120.333,109.214L120.348,109.267L120.363,109.32L120.379,109.373L120.395,109.425L120.411,109.477L120.427,109.529L120.444,109.581L120.461,109.632L120.478,109.683L120.496,109.733L120.514,109.784L120.532,109.834L120.551,109.884L120.57,109.933L120.589,109.982L120.608,110.031L120.628,110.08L120.648,110.128L120.668,110.176L120.689,110.224L120.71,110.271L120.731,110.318L120.752,110.365L120.774,110.411L120.796,110.458L120.818,110.503L120.84,110.549L120.863,110.594L120.886,110.639L120.909,110.684L120.932,110.728L120.956,110.772L120.98,110.815L121.004,110.858L121.028,110.901L121.052,110.944L121.077,110.986L121.102,111.028L121.127,111.07L121.152,111.111L121.178,111.152L121.204,111.193L121.23,111.233L121.256,111.273L121.282,111.312L121.309,111.352L121.336,111.391L121.363,111.429L121.39,111.467L121.417,111.505L121.444,111.543L121.472,111.58L121.5,111.617L121.528,111.653L121.556,111.689L121.584,111.725L121.613,111.76L121.641,111.796L121.67,111.83L121.699,111.865L121.728,111.898L121.757,111.932L121.787,111.965L121.816,111.998L121.846,112.031L121.875,112.063L121.905,112.095L121.935,112.126L121.965,112.157L121.995,112.188L122.026,112.218L122.056,112.248L122.087,112.277L122.117,112.306L122.148,112.335L122.179,112.363L122.21,112.391L122.241,112.419L122.272,112.446L122.303,112.473L122.334,112.5L122.365,112.526L122.397,112.551L122.428,112.576L122.46,112.601L122.491,112.626L122.519,112.647L125.85,112.647L126.926,110.867L126.905,110.808L126.881,110.739L126.856,110.664L126.828,110.582L126.799,110.493L126.769,110.398L126.738,110.298L126.722,110.246L126.706,110.192L126.689,110.138L126.673,110.082L126.657,110.025L126.64,109.967L126.624,109.908L126.607,109.848L126.591,109.788L126.575,109.726L126.559,109.664L126.543,109.6L126.527,109.536L126.511,109.472L126.496,109.407L126.481,109.341L126.466,109.274L126.451,109.208L126.437,109.14L126.424,109.073L126.41,109.005L126.398,108.936L126.385,108.868L126.374,108.799L126.362,108.73L126.352,108.661L126.342,108.592L126.333,108.523L126.324,108.454L126.316,108.385L126.309,108.315L126.303,108.247L126.3,108.212L126.298,108.178L126.295,108.143L126.293,108.109L126.291,108.075L126.289,108.041L126.288,108.006L126.287,107.972L126.286,107.938L126.285,107.905L126.285,107.871L126.285,107.838L126.285,100.988L120.924,98.531L128.585,91.297L117.673,79.51L105.489,86.52ZM120.201,91.191L115.389,95.742L115.389,86.115L120.201,91.191ZM116.173,93.92L119.091,91.161L116.173,88.083L116.173,93.92Z"/>
            <path d="M150.474,97.84L150.36,97.865L150.245,97.89L150.131,97.916L150.017,97.942L149.903,97.969L149.789,97.996L149.675,98.024L149.562,98.052L149.448,98.081L149.335,98.111L149.222,98.141L149.109,98.171L148.996,98.203L148.883,98.234L148.771,98.266L148.658,98.299L148.546,98.332L148.434,98.366L148.322,98.401L148.21,98.436L148.099,98.471L147.987,98.507L147.876,98.543L147.765,98.58L147.654,98.618L147.543,98.656L147.433,98.695L147.332,98.73L147.364,98.843L147.496,99.31L147.629,99.781L147.762,100.256L147.896,100.736L148.031,101.22L148.305,102.204L148.585,103.211L148.728,103.724L148.873,104.243L149.021,104.77L149.171,105.303L149.324,105.844L149.402,106.118L149.479,106.391L149.511,106.494L149.544,106.601L149.577,106.709L149.611,106.817L149.646,106.925L149.681,107.034L149.717,107.144L149.753,107.253L149.789,107.363L149.826,107.473L149.864,107.583L149.901,107.694L149.939,107.804L149.978,107.913L150.016,108.023L150.055,108.132L150.093,108.241L150.132,108.349L150.171,108.457L150.21,108.564L150.248,108.67L150.287,108.776L150.326,108.88L150.364,108.984L150.44,109.188L150.516,109.387L150.59,109.581L150.662,109.769L150.732,109.95L150.8,110.124L150.865,110.29L150.927,110.448L150.987,110.596L151.042,110.735L151.094,110.864L151.141,110.981L151.185,111.087L151.223,111.18L151.284,111.329L151.322,111.421L151.441,111.705L149.597,113.431L140.386,113.431L140.718,112.763L140.767,112.664L140.815,112.566L140.861,112.468L140.907,112.372L140.952,112.276L140.996,112.181L141.039,112.088L141.081,111.994L141.122,111.902L141.162,111.811L141.201,111.72L141.24,111.631L141.277,111.542L141.314,111.454L141.349,111.366L141.384,111.28L141.418,111.194L141.45,111.109L141.483,111.025L141.514,110.941L141.544,110.858L141.574,110.776L141.602,110.695L141.63,110.614L141.657,110.534L141.683,110.455L141.709,110.376L141.733,110.298L141.757,110.221L141.78,110.144L141.802,110.068L141.824,109.992L141.845,109.917L141.865,109.843L141.884,109.77L141.902,109.696L141.92,109.624L141.937,109.552L141.954,109.48L141.969,109.409L141.984,109.339L141.999,109.269L142.012,109.2L142.025,109.131L142.038,109.062L142.049,108.994L142.06,108.927L142.071,108.86L142.081,108.793L142.09,108.727L142.098,108.661L142.106,108.595L142.114,108.53L142.12,108.465L142.127,108.401L142.132,108.337L142.137,108.273L142.142,108.21L142.146,108.147L142.149,108.084L142.152,108.022L142.154,107.959L142.156,107.897L142.157,107.836L142.158,107.774L142.159,107.713L142.158,107.652L142.158,107.591L142.157,107.53L142.155,107.469L142.153,107.409L142.15,107.349L142.147,107.289L142.144,107.229L142.14,107.169L142.136,107.109L142.131,107.049L142.126,106.99L142.12,106.93L142.114,106.871L142.108,106.811L142.101,106.752L142.094,106.692L142.086,106.633L142.078,106.573L142.07,106.514L142.061,106.454L142.052,106.395L142.042,106.335L142.033,106.275L142.022,106.216L142.012,106.156L142.001,106.096L141.99,106.036L141.979,105.976L141.967,105.915L141.955,105.855L141.942,105.794L141.93,105.734L141.917,105.673L141.904,105.612L141.89,105.55L141.876,105.489L141.862,105.427L141.848,105.366L141.819,105.241L141.788,105.115L141.757,104.989L141.725,104.861L141.693,104.732L141.659,104.602L141.625,104.471L141.555,104.203L141.484,103.932L140.844,101.604L140.788,101.636L140.691,101.692L140.594,101.748L140.497,101.805L140.4,101.862L140.303,101.919L140.207,101.977L140.111,102.035L140.015,102.093L139.92,102.152L139.824,102.211L139.729,102.27L139.634,102.33L139.54,102.39L139.445,102.451L139.351,102.511L139.257,102.573L139.163,102.634L139.07,102.696L138.977,102.758L138.884,102.821L138.791,102.884L138.698,102.947L138.606,103.011L138.514,103.075L138.422,103.139L138.331,103.204L138.239,103.269L138.148,103.334L138.057,103.4L137.967,103.466L137.876,103.532L137.786,103.599L137.696,103.666L137.607,103.733L137.517,103.801L137.428,103.869L137.339,103.937L137.251,104.006L137.162,104.075L137.074,104.145L136.987,104.214L136.899,104.284L136.812,104.355L136.725,104.425L136.638,104.496L136.551,104.568L136.465,104.64L136.379,104.712L136.293,104.784L136.208,104.857L136.123,104.93L136.038,105.003L135.953,105.077L135.869,105.151L135.784,105.225L135.701,105.3L135.617,105.375L135.534,105.45L135.451,105.525L135.375,105.595L135.303,105.662L135.234,105.727L135.202,105.758L135.17,105.788L135.139,105.818L135.109,105.847L135.08,105.876L135.052,105.904L135.024,105.932L134.998,105.959L134.972,105.986L134.947,106.013L134.923,106.039L134.9,106.064L134.877,106.089L134.855,106.114L134.834,106.139L134.813,106.164L134.794,106.188L134.774,106.212L134.756,106.236L134.737,106.26L134.72,106.284L134.703,106.307L134.686,106.331L134.67,106.355L134.654,106.379L134.639,106.403L134.624,106.427L134.609,106.451L134.595,106.476L134.581,106.501L134.567,106.527L134.554,106.553L134.54,106.579L134.527,106.606L134.514,106.633L134.501,106.661L134.489,106.69L134.476,106.72L134.464,106.75L134.451,106.781L134.439,106.812L134.427,106.845L134.415,106.879L134.402,106.913L134.39,106.949L134.378,106.985L134.366,107.023L134.354,107.061L134.342,107.101L134.33,107.142L134.318,107.183L134.306,107.227L134.293,107.271L134.281,107.316L134.269,107.363L134.256,107.411L134.243,107.46L134.233,107.5L134.225,107.546L134.215,107.601L134.206,107.655L134.197,107.709L134.189,107.762L134.182,107.815L134.176,107.867L134.17,107.919L134.164,107.97L134.16,108.021L134.156,108.071L134.152,108.121L134.149,108.17L134.147,108.219L134.146,108.267L134.145,108.315L134.144,108.363L134.144,108.41L134.145,108.457L134.146,108.503L134.148,108.549L134.15,108.595L134.153,108.64L134.157,108.685L134.161,108.729L134.166,108.774L134.171,108.817L134.176,108.861L134.183,108.904L134.189,108.947L134.197,108.989L134.205,109.031L134.213,109.073L134.222,109.115L134.231,109.156L134.241,109.197L134.251,109.238L134.262,109.279L134.274,109.319L134.286,109.359L134.298,109.399L134.311,109.439L134.325,109.479L134.339,109.518L134.353,109.557L134.368,109.596L134.384,109.635L134.399,109.674L134.416,109.712L134.433,109.751L134.45,109.789L134.468,109.827L134.487,109.865L134.506,109.903L134.525,109.941L134.545,109.978L134.566,110.016L134.587,110.054L134.608,110.091L134.63,110.128L134.653,110.166L134.676,110.203L134.699,110.24L134.723,110.277L134.748,110.314L134.773,110.351L134.798,110.388L134.824,110.425L134.851,110.462L134.877,110.499L134.905,110.536L134.933,110.573L134.961,110.61L134.99,110.646L135.019,110.683L135.049,110.72L135.08,110.757L135.11,110.794L135.142,110.831L135.173,110.868L135.206,110.905L135.238,110.942L135.271,110.979L135.305,111.016L135.339,111.053L135.374,111.09L135.409,111.127L135.444,111.164L135.48,111.201L135.516,111.238L135.553,111.276L135.59,111.313L135.628,111.351L135.666,111.388L135.704,111.426L135.743,111.464L135.783,111.501L135.822,111.539L135.863,111.577L135.903,111.615L135.944,111.654L135.985,111.692L136.07,111.769L136.155,111.846L136.243,111.924L136.331,112.003L136.422,112.082L136.513,112.161L136.606,112.242L136.701,112.323L136.797,112.404L136.894,112.487L136.993,112.57L138.018,113.432L128.806,113.432L126.935,111.029L127.057,110.783L127.094,110.709L127.151,110.592L127.186,110.519L127.226,110.436L127.27,110.344L127.316,110.245L127.366,110.138L127.419,110.024L127.474,109.904L127.531,109.779L127.59,109.648L127.65,109.513L127.68,109.444L127.71,109.374L127.741,109.303L127.772,109.232L127.802,109.16L127.833,109.087L127.864,109.014L127.894,108.94L127.925,108.867L127.955,108.792L127.985,108.718L128.014,108.643L128.044,108.569L128.073,108.495L128.101,108.42L128.129,108.346L128.157,108.272L128.184,108.199L128.21,108.126L128.236,108.053L128.261,107.981L128.285,107.91L128.309,107.84L128.331,107.77L128.353,107.702L128.374,107.634L128.393,107.568L128.412,107.503L128.43,107.439L128.447,107.376L128.454,107.346L128.462,107.316L128.469,107.286L128.475,107.261L128.919,105.142L129.36,103.038L129.58,101.99L129.8,100.945L130.02,99.9L130.241,98.855L130.462,97.81L130.573,97.287L130.684,96.763L130.796,96.238L130.908,95.713L131.021,95.187L131.134,94.659L131.248,94.131L131.362,93.601L131.477,93.07L131.592,92.537L131.708,92.003L131.825,91.467L131.942,90.93L132.06,90.392L132.085,90.271L132.11,90.151L132.133,90.034L132.155,89.918L132.165,89.862L132.176,89.805L132.186,89.75L132.195,89.695L132.205,89.641L132.214,89.587L132.222,89.533L132.231,89.481L132.239,89.429L132.246,89.377L132.254,89.326L132.261,89.275L132.268,89.226L132.274,89.176L132.28,89.127L132.286,89.079L132.291,89.031L132.296,88.984L132.3,88.937L132.305,88.891L132.308,88.846L132.312,88.8L132.315,88.756L132.318,88.712L132.32,88.668L132.322,88.625L132.324,88.583L132.325,88.541L132.326,88.499L132.326,88.458L132.327,88.418L132.326,88.378L132.326,88.338L132.325,88.299L132.323,88.26L132.321,88.222L132.319,88.185L132.316,88.147L132.313,88.111L132.31,88.074L132.306,88.038L132.302,88.003L132.297,87.968L132.292,87.933L132.287,87.899L132.281,87.866L132.275,87.832L132.268,87.799L132.262,87.767L132.254,87.734L132.246,87.703L132.238,87.671L132.23,87.64L132.221,87.609L132.211,87.578L132.201,87.548L132.191,87.518L132.18,87.489L132.169,87.459L132.158,87.43L132.146,87.401L132.133,87.373L132.121,87.344L132.107,87.316L132.093,87.288L132.079,87.26L132.064,87.232L132.049,87.205L132.033,87.177L132.017,87.15L132,87.123L131.983,87.096L131.965,87.069L131.947,87.043L131.928,87.016L131.908,86.989L131.888,86.963L131.868,86.936L131.846,86.91L131.825,86.883L131.802,86.857L131.779,86.831L131.755,86.805L131.731,86.778L131.706,86.752L131.68,86.726L131.654,86.7L131.627,86.674L131.599,86.648L131.571,86.622L131.541,86.596L131.512,86.569L131.481,86.543L131.45,86.517L131.418,86.491L131.385,86.465L131.351,86.439L131.317,86.413L131.282,86.387L131.246,86.36L131.21,86.334L131.173,86.308L131.134,86.282L131.096,86.255L131.056,86.229L131.015,86.203L130.974,86.176L130.932,86.15L130.889,86.124L130.845,86.097L130.801,86.071L130.756,86.044L130.71,86.017L130.663,85.991L130.615,85.964L130.566,85.937L130.517,85.91L130.466,85.884L130.415,85.857L129.708,85.49L130.755,84.919L131.154,84.7L131.553,84.482L131.953,84.263L132.352,84.044L132.75,83.825L133.149,83.606L133.548,83.386L133.946,83.166L134.345,82.946L134.743,82.725L135.141,82.505L135.539,82.284L135.937,82.063L136.334,81.841L136.732,81.62L137.129,81.398L137.526,81.176L137.923,80.953L138.32,80.731L138.717,80.508L139.114,80.285L139.511,80.061L139.907,79.838L140.303,79.614L140.699,79.39L141.095,79.166L141.491,78.941L141.887,78.716L142.283,78.491L142.678,78.266L143.81,77.62L143.621,78.626L143.59,78.795L143.56,78.961L143.531,79.123L143.503,79.283L143.476,79.44L143.45,79.595L143.425,79.746L143.401,79.895L143.378,80.042L143.357,80.185L143.336,80.327L143.316,80.467L143.307,80.535L143.298,80.604L143.289,80.671L143.281,80.739L143.272,80.805L143.264,80.872L143.257,80.937L143.249,81.003L143.242,81.068L143.235,81.132L143.228,81.196L143.222,81.259L143.216,81.323L143.21,81.385L143.204,81.447L143.199,81.509L143.194,81.571L143.189,81.632L143.185,81.693L143.18,81.753L143.176,81.813L143.173,81.873L143.169,81.933L143.166,81.992L143.163,82.051L143.161,82.109L143.158,82.168L143.156,82.226L143.155,82.284L143.153,82.342L143.152,82.399L143.151,82.456L143.15,82.513L143.15,82.57L143.149,82.627L143.15,82.683L143.15,82.74L143.151,82.796L143.152,82.852L143.153,82.908L143.154,82.964L143.156,83.02L143.158,83.075L143.16,83.131L143.163,83.187L143.166,83.242L143.169,83.298L143.172,83.353L143.176,83.409L143.18,83.464L143.184,83.52L143.189,83.575L143.194,83.631L143.199,83.686L143.204,83.742L143.21,83.798L143.216,83.854L143.222,83.91L143.228,83.966L143.235,84.022L143.242,84.078L143.25,84.135L143.257,84.192L143.265,84.248L143.273,84.306L143.282,84.363L143.291,84.42L143.3,84.478L143.309,84.536L143.319,84.594L143.329,84.652L143.339,84.711L143.35,84.769L143.361,84.829L143.372,84.888L143.383,84.948L143.395,85.008L143.407,85.068L143.419,85.129L143.432,85.19L143.445,85.251L143.458,85.313L143.472,85.376L143.486,85.438L143.5,85.501L143.514,85.564L143.529,85.628L143.544,85.693L143.559,85.757L143.575,85.822L143.607,85.954L143.641,86.088L143.676,86.224L143.712,86.361L143.749,86.501L143.787,86.641L144.447,88.926L145.069,91.075L146.149,94.806L146.239,94.791L146.384,94.767L146.53,94.743L146.675,94.721L146.819,94.699L146.964,94.678L147.108,94.657L147.253,94.638L147.397,94.618L147.541,94.599L147.685,94.581L147.829,94.563L147.974,94.546L148.118,94.529L148.263,94.513L148.407,94.497L148.552,94.481L148.697,94.466L148.843,94.451L148.989,94.436L149.135,94.422L149.282,94.407L149.429,94.393L149.576,94.38L149.873,94.352L150.173,94.326L150.901,94.262L150.901,97.751L150.474,97.84ZM184.644,90.011L183.877,89.247L183.782,89.152L183.735,89.106L183.688,89.06L183.642,89.015L183.596,88.971L183.55,88.927L183.505,88.885L183.46,88.842L183.415,88.801L183.371,88.76L183.326,88.72L183.282,88.681L183.238,88.643L183.195,88.605L183.151,88.568L183.108,88.532L183.064,88.496L183.021,88.461L182.978,88.427L182.935,88.394L182.891,88.362L182.848,88.33L182.805,88.299L182.761,88.269L182.717,88.24L182.696,88.226L182.674,88.212L182.652,88.198L182.631,88.184L182.609,88.17L182.587,88.157L182.565,88.144L182.542,88.131L182.52,88.118L182.498,88.105L182.476,88.093L182.453,88.08L182.431,88.068L182.408,88.057L182.386,88.045L182.363,88.033L182.34,88.022L182.318,88.011L182.295,88L182.271,87.989L182.248,87.979L182.225,87.968L182.202,87.958L182.178,87.948L182.154,87.938L182.13,87.929L182.106,87.919L182.082,87.91L182.058,87.901L182.034,87.892L182.009,87.884L181.984,87.875L181.96,87.867L181.934,87.859L181.909,87.851L181.884,87.843L181.858,87.836L181.832,87.828L181.806,87.821L181.78,87.814L181.754,87.807L181.727,87.801L181.7,87.794L181.673,87.788L181.646,87.782L181.618,87.776L181.591,87.771L181.563,87.765L181.534,87.76L181.506,87.755L181.477,87.751L181.448,87.746L181.419,87.742L181.389,87.738L181.359,87.734L181.329,87.73L181.299,87.726L181.268,87.723L181.237,87.72L181.206,87.717L181.175,87.714L181.143,87.712L181.111,87.71L181.078,87.708L181.045,87.706L181.012,87.705L180.979,87.703L180.945,87.702L180.911,87.701L180.877,87.701L180.842,87.7L180.806,87.7L178.178,87.7L178.178,105.233L178.179,105.317L178.179,105.4L178.18,105.482L178.182,105.564L178.184,105.646L178.187,105.727L178.19,105.807L178.193,105.887L178.197,105.967L178.202,106.046L178.207,106.125L178.212,106.203L178.218,106.281L178.224,106.358L178.231,106.435L178.238,106.512L178.246,106.588L178.254,106.664L178.262,106.739L178.271,106.814L178.28,106.888L178.29,106.962L178.301,107.036L178.311,107.109L178.322,107.182L178.334,107.254L178.346,107.326L178.358,107.398L178.371,107.469L178.384,107.539L178.398,107.61L178.412,107.68L178.426,107.749L178.441,107.818L178.457,107.887L178.472,107.955L178.489,108.023L178.505,108.09L178.522,108.157L178.539,108.224L178.557,108.29L178.575,108.356L178.594,108.421L178.613,108.486L178.632,108.551L178.652,108.615L178.672,108.679L178.693,108.743L178.714,108.806L178.735,108.869L178.757,108.931L178.779,108.993L178.801,109.055L178.824,109.116L178.847,109.177L178.871,109.237L178.895,109.297L178.919,109.357L178.944,109.417L178.969,109.476L178.994,109.534L179.02,109.593L179.046,109.651L179.073,109.708L179.1,109.766L179.127,109.823L179.155,109.879L179.183,109.935L179.211,109.991L179.24,110.047L179.269,110.102L179.299,110.157L179.328,110.211L179.359,110.266L179.389,110.319L179.42,110.373L179.451,110.426L179.483,110.479L179.514,110.531L179.547,110.584L179.579,110.635L179.612,110.687L179.645,110.738L179.679,110.789L179.713,110.84L179.747,110.89L179.782,110.94L179.817,110.989L179.852,111.039L179.888,111.088L179.924,111.136L179.96,111.185L179.996,111.233L180.033,111.28L180.071,111.328L180.108,111.375L180.146,111.422L180.184,111.468L180.223,111.515L180.262,111.561L180.301,111.606L180.34,111.652L180.38,111.697L180.42,111.741L180.461,111.786L180.501,111.83L180.542,111.874L180.584,111.918L180.625,111.961L180.667,112.004L180.71,112.047L180.752,112.089L180.795,112.131L180.838,112.173L180.882,112.215L180.926,112.256L180.97,112.298L181.014,112.338L181.059,112.379L181.104,112.419L181.149,112.459L181.195,112.499L181.241,112.538L181.287,112.578L181.333,112.617L181.38,112.655L181.427,112.694L182.341,113.43L167.328,113.43L168.171,112.687L168.233,112.631L168.295,112.576L168.355,112.52L168.414,112.465L168.473,112.409L168.53,112.354L168.586,112.299L168.642,112.244L168.697,112.189L168.75,112.134L168.803,112.08L168.855,112.025L168.905,111.97L168.955,111.916L169.004,111.862L169.053,111.807L169.1,111.753L169.146,111.699L169.192,111.645L169.237,111.591L169.281,111.537L169.324,111.483L169.366,111.429L169.407,111.375L169.448,111.321L169.488,111.268L169.527,111.214L169.565,111.16L169.603,111.107L169.639,111.053L169.675,110.999L169.711,110.946L169.745,110.892L169.779,110.839L169.812,110.785L169.844,110.732L169.876,110.678L169.907,110.625L169.938,110.571L169.967,110.518L169.996,110.464L170.025,110.41L170.052,110.357L170.079,110.303L170.106,110.249L170.132,110.196L170.157,110.142L170.182,110.088L170.206,110.034L170.229,109.98L170.252,109.926L170.274,109.872L170.296,109.818L170.317,109.764L170.338,109.709L170.358,109.655L170.378,109.6L170.397,109.546L170.415,109.491L170.433,109.436L170.451,109.381L170.468,109.326L170.484,109.271L170.501,109.216L170.516,109.16L170.531,109.105L170.546,109.049L170.56,108.993L170.574,108.937L170.588,108.881L170.6,108.824L170.613,108.768L170.625,108.711L170.637,108.654L170.648,108.597L170.659,108.54L170.67,108.483L170.68,108.425L170.69,108.367L170.699,108.309L170.708,108.251L170.717,108.193L170.725,108.134L170.733,108.075L170.741,108.016L170.748,107.957L170.755,107.897L170.762,107.838L170.768,107.778L170.775,107.718L170.78,107.657L170.786,107.597L170.791,107.536L170.796,107.475L170.801,107.413L170.805,107.352L170.81,107.29L170.814,107.228L170.817,107.165L170.821,107.103L170.824,107.04L170.827,106.977L170.83,106.913L170.833,106.85L170.835,106.786L170.84,106.657L170.843,106.527L170.846,106.396L170.849,106.264L170.851,106.131L170.852,105.996L170.853,105.86L170.854,105.723L170.854,105.585L170.855,105.305L170.855,87.7L168.999,87.7L168.955,87.7L168.912,87.701L168.869,87.701L168.826,87.702L168.785,87.703L168.743,87.704L168.702,87.706L168.662,87.707L168.622,87.709L168.583,87.711L168.544,87.714L168.506,87.716L168.468,87.719L168.43,87.722L168.393,87.725L168.357,87.728L168.321,87.732L168.285,87.735L168.25,87.739L168.215,87.743L168.181,87.748L168.147,87.752L168.113,87.757L168.08,87.762L168.048,87.767L168.015,87.772L167.984,87.778L167.952,87.783L167.921,87.789L167.89,87.795L167.86,87.801L167.83,87.808L167.801,87.814L167.772,87.821L167.743,87.828L167.714,87.835L167.686,87.843L167.658,87.85L167.631,87.858L167.604,87.866L167.577,87.874L167.55,87.882L167.524,87.89L167.498,87.899L167.472,87.907L167.447,87.916L167.422,87.925L167.397,87.935L167.373,87.944L167.348,87.954L167.324,87.963L167.3,87.973L167.277,87.983L167.253,87.994L167.23,88.004L167.207,88.015L167.184,88.026L167.162,88.037L167.139,88.048L167.117,88.059L167.095,88.071L167.073,88.082L167.052,88.094L167.03,88.106L167.009,88.119L166.987,88.131L166.966,88.144L166.945,88.157L166.924,88.17L166.903,88.183L166.883,88.196L166.862,88.21L166.842,88.224L166.821,88.238L166.801,88.252L166.78,88.267L166.76,88.281L166.74,88.296L166.72,88.311L166.7,88.326L166.68,88.342L166.66,88.358L166.64,88.374L166.62,88.39L166.6,88.406L166.581,88.422L166.541,88.457L166.501,88.491L166.461,88.527L166.422,88.563L166.382,88.601L166.342,88.639L166.302,88.679L166.262,88.719L166.222,88.76L166.181,88.802L166.14,88.845L166.099,88.889L166.057,88.934L166.015,88.979L165.973,89.026L165.93,89.073L165.887,89.122L165.843,89.171L165.799,89.221L165.021,90.108L165.02,80.379L184.644,80.379L184.644,90.011ZM142.732,79.138L142.671,79.173L142.275,79.398L141.879,79.623L141.482,79.848L141.086,80.073L140.689,80.297L140.293,80.521L139.896,80.745L139.499,80.968L139.102,81.192L138.704,81.415L138.307,81.638L137.91,81.86L137.512,82.083L137.114,82.305L136.716,82.527L136.318,82.748L135.92,82.97L135.521,83.191L135.123,83.412L134.724,83.632L134.326,83.853L133.927,84.073L133.528,84.293L133.129,84.513L132.729,84.732L132.33,84.951L131.93,85.17L131.531,85.389L131.351,85.487L131.394,85.513L131.441,85.543L131.487,85.573L131.532,85.603L131.577,85.633L131.621,85.664L131.664,85.694L131.707,85.725L131.749,85.756L131.79,85.787L131.831,85.818L131.871,85.849L131.91,85.88L131.949,85.912L131.987,85.944L132.025,85.976L132.062,86.008L132.098,86.041L132.133,86.073L132.168,86.106L132.203,86.139L132.236,86.173L132.269,86.206L132.302,86.24L132.333,86.274L132.365,86.309L132.395,86.343L132.425,86.378L132.454,86.413L132.483,86.449L132.51,86.485L132.538,86.521L132.564,86.557L132.59,86.594L132.616,86.63L132.64,86.668L132.664,86.705L132.688,86.743L132.71,86.781L132.732,86.819L132.754,86.858L132.774,86.896L132.795,86.936L132.814,86.975L132.833,87.015L132.851,87.055L132.868,87.095L132.885,87.135L132.901,87.176L132.917,87.217L132.931,87.258L132.946,87.3L132.959,87.341L132.972,87.383L132.984,87.426L132.996,87.468L133.007,87.511L133.018,87.554L133.028,87.597L133.037,87.64L133.046,87.684L133.054,87.728L133.061,87.772L133.068,87.816L133.075,87.861L133.081,87.906L133.086,87.951L133.091,87.996L133.095,88.042L133.099,88.088L133.102,88.134L133.105,88.18L133.107,88.227L133.109,88.274L133.11,88.321L133.111,88.368L133.111,88.416L133.111,88.464L133.11,88.512L133.109,88.56L133.108,88.609L133.106,88.659L133.104,88.708L133.101,88.758L133.098,88.808L133.094,88.858L133.091,88.909L133.086,88.96L133.081,89.011L133.076,89.063L133.071,89.115L133.065,89.168L133.059,89.221L133.052,89.274L133.045,89.328L133.038,89.382L133.031,89.436L133.023,89.491L133.014,89.546L133.006,89.602L132.997,89.658L132.988,89.715L132.978,89.772L132.968,89.829L132.958,89.887L132.948,89.945L132.937,90.004L132.926,90.063L132.903,90.183L132.879,90.305L132.854,90.429L132.828,90.556L132.709,91.097L132.592,91.635L132.475,92.17L132.359,92.704L132.244,93.236L132.129,93.767L132.015,94.296L131.901,94.824L131.788,95.351L131.676,95.877L131.564,96.402L131.452,96.926L131.34,97.45L131.229,97.973L131.008,99.018L130.788,100.062L130.568,101.106L130.348,102.152L130.128,103.199L129.687,105.303L129.241,107.431L129.232,107.469L129.223,107.504L129.215,107.539L129.206,107.574L129.187,107.645L129.167,107.716L129.146,107.788L129.125,107.862L129.102,107.935L129.078,108.01L129.054,108.085L129.029,108.16L129.003,108.237L128.976,108.313L128.949,108.39L128.921,108.467L128.893,108.544L128.864,108.622L128.834,108.7L128.805,108.777L128.775,108.855L128.744,108.932L128.713,109.01L128.682,109.087L128.651,109.164L128.619,109.24L128.588,109.316L128.556,109.391L128.525,109.466L128.493,109.54L128.462,109.614L128.43,109.686L128.399,109.758L128.368,109.829L128.306,109.968L128.246,110.101L128.188,110.23L128.132,110.353L128.078,110.469L128.027,110.578L127.979,110.68L127.934,110.774L127.893,110.859L127.857,110.934L127.856,110.936L129.19,112.648L135.877,112.648L135.813,112.592L135.721,112.511L135.631,112.43L135.542,112.349L135.454,112.269L135.411,112.229L135.367,112.189L135.325,112.149L135.282,112.109L135.24,112.068L135.198,112.028L135.157,111.988L135.116,111.948L135.075,111.908L135.035,111.868L134.995,111.828L134.955,111.787L134.916,111.747L134.877,111.707L134.839,111.666L134.801,111.626L134.763,111.585L134.726,111.545L134.689,111.504L134.652,111.463L134.616,111.422L134.58,111.381L134.545,111.34L134.51,111.299L134.475,111.258L134.441,111.216L134.408,111.175L134.374,111.133L134.342,111.091L134.309,111.049L134.277,111.007L134.246,110.964L134.215,110.922L134.184,110.879L134.154,110.836L134.124,110.793L134.095,110.75L134.066,110.706L134.038,110.662L134.01,110.618L133.983,110.574L133.956,110.53L133.93,110.485L133.904,110.44L133.879,110.395L133.854,110.35L133.83,110.304L133.806,110.258L133.783,110.212L133.761,110.166L133.739,110.119L133.717,110.072L133.696,110.025L133.676,109.978L133.656,109.93L133.637,109.882L133.619,109.834L133.601,109.785L133.583,109.736L133.567,109.687L133.551,109.638L133.535,109.588L133.52,109.538L133.506,109.488L133.492,109.437L133.479,109.386L133.467,109.335L133.455,109.283L133.444,109.232L133.434,109.179L133.424,109.127L133.415,109.074L133.407,109.021L133.399,108.968L133.392,108.914L133.386,108.86L133.38,108.806L133.375,108.751L133.371,108.697L133.367,108.641L133.364,108.586L133.362,108.53L133.36,108.474L133.36,108.417L133.359,108.36L133.36,108.303L133.361,108.246L133.363,108.188L133.366,108.13L133.369,108.071L133.373,108.012L133.378,107.953L133.384,107.894L133.39,107.834L133.397,107.773L133.404,107.713L133.413,107.652L133.422,107.59L133.431,107.529L133.442,107.467L133.453,107.404L133.467,107.332L133.483,107.267L133.496,107.215L133.51,107.163L133.523,107.113L133.537,107.063L133.55,107.015L133.563,106.967L133.577,106.921L133.591,106.875L133.604,106.829L133.618,106.785L133.632,106.741L133.647,106.699L133.661,106.656L133.676,106.615L133.69,106.574L133.706,106.533L133.721,106.494L133.737,106.454L133.753,106.416L133.769,106.377L133.786,106.34L133.803,106.302L133.82,106.266L133.838,106.229L133.856,106.193L133.875,106.158L133.894,106.122L133.913,106.088L133.933,106.053L133.954,106.019L133.975,105.985L133.996,105.952L134.018,105.919L134.04,105.886L134.063,105.853L134.086,105.821L134.11,105.789L134.134,105.757L134.159,105.726L134.184,105.694L134.209,105.663L134.236,105.632L134.262,105.601L134.289,105.57L134.317,105.539L134.345,105.508L134.374,105.477L134.404,105.445L134.433,105.414L134.464,105.383L134.495,105.351L134.527,105.32L134.559,105.288L134.592,105.255L134.626,105.223L134.66,105.19L134.695,105.156L134.767,105.089L134.842,105.019L134.921,104.947L135.007,104.869L135.092,104.792L135.178,104.715L135.264,104.638L135.35,104.562L135.437,104.486L135.524,104.41L135.611,104.335L135.698,104.26L135.786,104.185L135.874,104.111L135.962,104.037L136.051,103.964L136.14,103.89L136.229,103.817L136.318,103.745L136.408,103.673L136.498,103.601L136.588,103.529L136.678,103.458L136.769,103.387L136.86,103.316L136.951,103.246L137.042,103.176L137.134,103.107L137.226,103.038L137.318,102.969L137.411,102.901L137.503,102.832L137.596,102.765L137.69,102.697L137.783,102.63L137.877,102.564L137.971,102.497L138.065,102.431L138.16,102.366L138.254,102.3L138.349,102.235L138.444,102.171L138.54,102.106L138.636,102.043L138.732,101.979L138.828,101.916L138.924,101.853L139.021,101.791L139.118,101.729L139.215,101.667L139.312,101.606L139.41,101.545L139.508,101.484L139.606,101.424L139.704,101.364L139.803,101.304L139.902,101.245L140.001,101.186L140.1,101.128L140.199,101.07L140.299,101.012L140.399,100.955L140.499,100.898L140.599,100.841L140.7,100.785L140.801,100.729L141.337,100.435L142.242,103.728L142.314,104.004L142.385,104.273L142.419,104.406L142.453,104.538L142.486,104.67L142.519,104.8L142.551,104.93L142.582,105.059L142.612,105.188L142.627,105.252L142.642,105.316L142.656,105.38L142.67,105.444L142.684,105.508L142.698,105.572L142.711,105.636L142.724,105.7L142.737,105.763L142.749,105.827L142.761,105.891L142.773,105.955L142.784,106.019L142.796,106.082L142.806,106.146L142.817,106.21L142.827,106.274L142.837,106.338L142.846,106.402L142.855,106.466L142.864,106.531L142.872,106.595L142.88,106.66L142.887,106.724L142.894,106.789L142.901,106.854L142.907,106.919L142.913,106.984L142.918,107.049L142.923,107.115L142.927,107.181L142.931,107.246L142.934,107.313L142.937,107.379L142.939,107.445L142.941,107.512L142.942,107.579L142.943,107.646L142.943,107.713L142.943,107.781L142.942,107.849L142.941,107.917L142.939,107.986L142.936,108.054L142.933,108.123L142.929,108.193L142.925,108.262L142.92,108.332L142.914,108.402L142.908,108.473L142.901,108.544L142.894,108.615L142.886,108.687L142.877,108.759L142.867,108.831L142.857,108.904L142.847,108.977L142.835,109.05L142.823,109.124L142.81,109.198L142.797,109.273L142.783,109.348L142.768,109.424L142.752,109.5L142.736,109.576L142.719,109.653L142.701,109.73L142.683,109.808L142.664,109.886L142.644,109.965L142.623,110.044L142.601,110.124L142.579,110.205L142.556,110.286L142.532,110.367L142.508,110.449L142.482,110.531L142.456,110.615L142.429,110.698L142.401,110.783L142.373,110.867L142.343,110.953L142.313,111.039L142.282,111.126L142.25,111.213L142.217,111.301L142.183,111.39L142.148,111.479L142.113,111.569L142.077,111.66L142.039,111.751L142.001,111.844L141.962,111.937L141.922,112.03L141.881,112.125L141.84,112.22L141.797,112.315L141.753,112.412L141.709,112.51L141.663,112.608L141.645,112.647L149.287,112.647L150.507,111.504L150.497,111.479L150.458,111.383L150.414,111.276L150.366,111.157L150.314,111.028L150.258,110.887L150.198,110.737L150.135,110.578L150.069,110.41L150.001,110.235L149.93,110.051L149.857,109.862L149.782,109.666L149.706,109.464L149.629,109.258L149.59,109.153L149.551,109.047L149.512,108.94L149.472,108.832L149.433,108.724L149.394,108.614L149.354,108.505L149.315,108.394L149.276,108.283L149.237,108.172L149.198,108.06L149.159,107.949L149.121,107.837L149.083,107.724L149.045,107.612L149.008,107.5L148.971,107.388L148.935,107.276L148.899,107.165L148.863,107.054L148.828,106.943L148.794,106.833L148.76,106.723L148.727,106.611L148.647,106.332L148.569,106.058L148.416,105.516L148.265,104.982L148.118,104.455L147.972,103.935L147.829,103.422L147.549,102.414L147.275,101.43L147.14,100.946L147.007,100.467L146.874,99.993L146.741,99.523L146.609,99.057L146.544,98.825L146.378,98.245L146.831,98.077L146.945,98.036L147.058,97.995L147.172,97.955L147.286,97.915L147.401,97.875L147.515,97.837L147.63,97.798L147.744,97.761L147.859,97.724L147.975,97.687L148.09,97.651L148.205,97.616L148.321,97.581L148.437,97.546L148.553,97.513L148.669,97.479L148.785,97.447L148.902,97.415L149.019,97.383L149.135,97.352L149.252,97.322L149.369,97.292L149.487,97.262L149.604,97.234L149.721,97.205L149.839,97.178L149.957,97.151L150.075,97.124L150.117,97.115L150.117,95.118L149.944,95.134L149.649,95.161L149.502,95.175L149.357,95.188L149.211,95.203L149.067,95.217L148.922,95.231L148.779,95.246L148.635,95.261L148.493,95.277L148.35,95.293L148.208,95.309L148.066,95.325L147.924,95.342L147.782,95.36L147.641,95.378L147.5,95.396L147.358,95.415L147.217,95.435L147.076,95.455L146.935,95.475L146.793,95.497L146.652,95.519L146.51,95.541L146.368,95.565L146.226,95.589L146.083,95.613L145.591,95.701L144.316,91.294L143.694,89.144L143.031,86.853L142.991,86.705L142.953,86.561L142.916,86.42L142.88,86.281L142.846,86.143L142.813,86.007L142.796,85.94L142.78,85.873L142.765,85.806L142.749,85.74L142.734,85.674L142.72,85.609L142.705,85.544L142.691,85.479L142.677,85.415L142.664,85.35L142.651,85.287L142.638,85.223L142.625,85.16L142.613,85.097L142.601,85.034L142.589,84.972L142.578,84.91L142.567,84.848L142.556,84.786L142.545,84.724L142.535,84.663L142.525,84.602L142.515,84.541L142.506,84.48L142.497,84.419L142.488,84.359L142.48,84.298L142.472,84.238L142.464,84.178L142.456,84.118L142.449,84.058L142.442,83.998L142.436,83.939L142.429,83.879L142.423,83.819L142.418,83.76L142.412,83.7L142.407,83.641L142.402,83.581L142.398,83.522L142.393,83.463L142.389,83.403L142.386,83.344L142.382,83.284L142.379,83.225L142.377,83.165L142.374,83.106L142.372,83.046L142.37,82.987L142.368,82.927L142.367,82.867L142.366,82.807L142.365,82.747L142.365,82.687L142.365,82.626L142.365,82.566L142.365,82.505L142.366,82.445L142.367,82.384L142.369,82.323L142.37,82.261L142.372,82.2L142.374,82.138L142.377,82.076L142.38,82.014L142.383,81.952L142.386,81.889L142.39,81.827L142.393,81.763L142.398,81.7L142.402,81.636L142.407,81.573L142.412,81.508L142.417,81.444L142.423,81.379L142.429,81.314L142.435,81.248L142.441,81.182L142.448,81.116L142.455,81.049L142.462,80.982L142.469,80.915L142.477,80.847L142.485,80.779L142.494,80.71L142.502,80.641L142.511,80.571L142.52,80.501L142.529,80.431L142.539,80.359L142.559,80.216L142.58,80.071L142.603,79.923L142.626,79.773L142.65,79.621L142.676,79.466L142.702,79.309L142.73,79.149L142.732,79.138ZM180.847,86.916L180.888,86.916L180.927,86.917L180.967,86.918L181.006,86.919L181.046,86.921L181.084,86.922L181.123,86.924L181.161,86.927L181.199,86.929L181.237,86.932L181.275,86.935L181.312,86.939L181.349,86.943L181.386,86.947L181.423,86.951L181.459,86.955L181.495,86.96L181.531,86.965L181.567,86.97L181.602,86.976L181.638,86.982L181.673,86.988L181.707,86.994L181.742,87.001L181.776,87.008L181.81,87.015L181.844,87.022L181.878,87.03L181.912,87.038L181.945,87.046L181.978,87.055L182.011,87.064L182.044,87.073L182.076,87.082L182.108,87.091L182.141,87.101L182.172,87.111L182.204,87.121L182.236,87.132L182.267,87.143L182.298,87.154L182.329,87.165L182.36,87.176L182.39,87.188L182.421,87.2L182.451,87.212L182.481,87.224L182.511,87.237L182.54,87.25L182.57,87.263L182.599,87.276L182.628,87.29L182.657,87.304L182.686,87.318L182.715,87.332L182.743,87.346L182.771,87.361L182.8,87.376L182.828,87.391L182.855,87.406L182.883,87.421L182.911,87.437L182.938,87.453L182.965,87.469L182.992,87.485L183.019,87.502L183.046,87.518L183.073,87.535L183.099,87.552L183.126,87.569L183.153,87.587L183.204,87.622L183.256,87.657L183.307,87.694L183.358,87.731L183.409,87.769L183.459,87.808L183.509,87.847L183.558,87.886L183.607,87.927L183.656,87.967L183.705,88.009L183.754,88.051L183.802,88.093L183.85,88.136L183.86,88.145L183.86,81.163L165.804,81.163L165.805,88.067L165.841,88.033L165.887,87.989L165.933,87.946L165.98,87.904L166.028,87.863L166.075,87.823L166.099,87.802L166.124,87.782L166.148,87.762L166.172,87.743L166.197,87.724L166.222,87.704L166.247,87.685L166.272,87.666L166.297,87.648L166.323,87.629L166.348,87.611L166.374,87.593L166.4,87.575L166.426,87.557L166.453,87.54L166.479,87.523L166.506,87.506L166.533,87.489L166.56,87.472L166.588,87.456L166.615,87.44L166.643,87.424L166.671,87.408L166.7,87.393L166.728,87.377L166.757,87.362L166.786,87.347L166.815,87.333L166.844,87.319L166.874,87.305L166.904,87.291L166.934,87.277L166.964,87.264L166.995,87.251L167.026,87.238L167.057,87.225L167.088,87.213L167.12,87.201L167.152,87.189L167.184,87.177L167.216,87.166L167.249,87.155L167.282,87.144L167.315,87.133L167.349,87.123L167.382,87.113L167.416,87.103L167.451,87.093L167.485,87.084L167.52,87.075L167.555,87.066L167.591,87.058L167.626,87.049L167.663,87.041L167.699,87.033L167.736,87.026L167.773,87.019L167.81,87.012L167.847,87.005L167.885,86.998L167.924,86.992L167.962,86.986L168.001,86.98L168.04,86.975L168.08,86.969L168.12,86.964L168.16,86.96L168.201,86.955L168.242,86.951L168.283,86.947L168.325,86.943L168.367,86.939L168.41,86.936L168.453,86.933L168.496,86.93L168.539,86.928L168.584,86.926L168.628,86.923L168.673,86.922L168.718,86.92L168.764,86.919L168.81,86.918L168.857,86.917L168.904,86.916L168.951,86.916L168.998,86.916L171.639,86.916L171.639,105.305L171.639,105.587L171.639,105.727L171.638,105.866L171.637,106.004L171.635,106.141L171.633,106.277L171.631,106.412L171.628,106.547L171.624,106.681L171.619,106.814L171.617,106.881L171.614,106.947L171.611,107.013L171.608,107.079L171.604,107.145L171.601,107.211L171.597,107.276L171.593,107.342L171.588,107.407L171.583,107.472L171.578,107.537L171.573,107.601L171.567,107.666L171.562,107.731L171.555,107.795L171.549,107.859L171.542,107.923L171.535,107.987L171.527,108.051L171.519,108.115L171.511,108.179L171.502,108.242L171.493,108.306L171.484,108.369L171.474,108.432L171.464,108.496L171.453,108.559L171.442,108.622L171.43,108.684L171.418,108.747L171.406,108.81L171.393,108.872L171.38,108.935L171.366,108.997L171.351,109.06L171.337,109.122L171.321,109.184L171.305,109.246L171.289,109.308L171.272,109.37L171.255,109.432L171.237,109.493L171.218,109.555L171.199,109.617L171.18,109.678L171.159,109.74L171.139,109.801L171.117,109.862L171.095,109.924L171.073,109.985L171.049,110.046L171.025,110.107L171.001,110.168L170.976,110.229L170.95,110.29L170.924,110.35L170.897,110.411L170.869,110.472L170.84,110.532L170.811,110.593L170.782,110.653L170.751,110.714L170.72,110.774L170.688,110.834L170.655,110.894L170.622,110.955L170.588,111.015L170.553,111.075L170.518,111.135L170.481,111.195L170.444,111.255L170.407,111.314L170.368,111.374L170.329,111.434L170.289,111.494L170.248,111.553L170.206,111.613L170.164,111.672L170.12,111.732L170.076,111.791L170.031,111.851L169.986,111.91L169.939,111.97L169.892,112.029L169.843,112.088L169.794,112.148L169.744,112.207L169.693,112.266L169.642,112.325L169.589,112.385L169.536,112.444L169.482,112.503L169.426,112.562L169.37,112.622L169.347,112.646L180.199,112.646L180.154,112.6L180.107,112.554L180.062,112.507L180.016,112.46L179.971,112.412L179.926,112.364L179.882,112.316L179.838,112.267L179.794,112.218L179.75,112.169L179.707,112.119L179.664,112.069L179.622,112.019L179.58,111.968L179.538,111.918L179.496,111.866L179.455,111.815L179.414,111.763L179.374,111.71L179.334,111.658L179.294,111.605L179.255,111.551L179.216,111.498L179.177,111.443L179.139,111.389L179.101,111.334L179.063,111.279L179.026,111.224L178.989,111.168L178.953,111.112L178.916,111.055L178.881,110.998L178.845,110.941L178.81,110.884L178.776,110.826L178.742,110.767L178.708,110.709L178.674,110.65L178.641,110.59L178.609,110.531L178.576,110.47L178.545,110.41L178.513,110.349L178.482,110.288L178.451,110.226L178.421,110.165L178.391,110.102L178.362,110.04L178.333,109.977L178.304,109.913L178.276,109.849L178.248,109.785L178.221,109.721L178.194,109.656L178.167,109.591L178.141,109.525L178.115,109.459L178.09,109.393L178.065,109.326L178.041,109.259L178.016,109.192L177.993,109.124L177.97,109.055L177.947,108.987L177.925,108.918L177.903,108.848L177.881,108.779L177.86,108.709L177.84,108.638L177.82,108.567L177.8,108.496L177.781,108.424L177.762,108.352L177.744,108.28L177.726,108.207L177.709,108.134L177.692,108.06L177.675,107.986L177.659,107.912L177.643,107.837L177.628,107.762L177.614,107.687L177.599,107.611L177.586,107.534L177.572,107.458L177.559,107.38L177.547,107.303L177.535,107.225L177.524,107.147L177.513,107.068L177.502,106.989L177.492,106.91L177.483,106.83L177.474,106.749L177.465,106.669L177.457,106.588L177.449,106.506L177.442,106.424L177.436,106.342L177.429,106.259L177.424,106.176L177.419,106.092L177.414,106.008L177.41,105.924L177.406,105.839L177.403,105.754L177.4,105.668L177.398,105.582L177.396,105.496L177.395,105.409L177.394,105.322L177.394,105.235L177.394,86.916L180.808,86.916L180.847,86.916ZM140.437,97.169L140.041,97.332L139.97,97.362L139.9,97.391L139.83,97.421L139.76,97.452L139.69,97.482L139.62,97.513L139.551,97.545L139.482,97.576L139.412,97.608L139.343,97.64L139.274,97.673L139.206,97.706L139.137,97.739L139.069,97.772L139,97.806L138.932,97.84L138.864,97.874L138.796,97.909L138.728,97.944L138.66,97.979L138.592,98.015L138.524,98.05L138.457,98.087L138.389,98.123L138.322,98.16L138.255,98.197L138.187,98.234L138.12,98.272L138.053,98.31L137.986,98.349L137.918,98.387L137.851,98.426L137.784,98.465L137.717,98.505L137.65,98.545L137.583,98.585L137.516,98.626L137.449,98.667L137.382,98.708L137.315,98.749L137.248,98.791L137.181,98.833L137.114,98.876L137.047,98.918L136.98,98.961L136.913,99.005L136.846,99.048L136.779,99.092L136.712,99.137L136.644,99.181L136.577,99.226L136.51,99.272L136.442,99.317L136.375,99.363L136.307,99.409L136.239,99.456L136.172,99.503L136.104,99.55L136.036,99.597L135.968,99.645L135.9,99.693L134.933,100.38L135.251,98.937L135.349,98.487L135.448,98.035L135.545,97.583L135.642,97.132L135.738,96.684L135.833,96.239L135.927,95.797L136.019,95.361L136.11,94.931L136.199,94.509L136.286,94.094L136.371,93.688L136.453,93.293L136.61,92.537L136.756,91.833L136.888,91.19L137.109,90.119L137.194,89.706L137.26,89.386L137.286,89.262L137.307,89.164L137.323,89.093L137.329,89.065L137.679,87.594L140.437,97.169ZM137.657,91.349L137.524,91.992L137.379,92.696L137.221,93.453L137.139,93.849L137.054,94.255L136.967,94.67L136.878,95.093L136.787,95.524L136.695,95.96L136.601,96.402L136.506,96.848L136.409,97.297L136.312,97.749L136.214,98.201L136.132,98.58L136.141,98.574L136.21,98.528L136.279,98.482L136.348,98.437L136.417,98.391L136.486,98.346L136.555,98.302L136.625,98.257L136.694,98.213L136.763,98.17L136.832,98.126L136.901,98.083L136.97,98.04L137.04,97.997L137.109,97.955L137.178,97.913L137.248,97.872L137.317,97.83L137.386,97.789L137.456,97.748L137.526,97.708L137.595,97.668L137.665,97.628L137.735,97.589L137.805,97.549L137.875,97.51L137.945,97.472L138.015,97.434L138.085,97.396L138.156,97.358L138.226,97.321L138.297,97.283L138.367,97.247L138.438,97.21L138.509,97.174L138.58,97.138L138.652,97.103L138.723,97.068L138.795,97.033L138.866,96.998L138.938,96.964L139.01,96.93L139.082,96.896L139.155,96.863L139.227,96.83L139.3,96.797L139.373,96.765L139.446,96.733L139.49,96.714L137.776,90.768L137.657,91.349Z"/>
            <path d="M161.475,77.623L161.614,77.769L161.751,77.914L161.889,78.059L162.026,78.205L162.163,78.35L162.436,78.64L162.708,78.931L162.979,79.221L163.25,79.511L163.52,79.801L164.06,80.381L164.331,80.671L164.602,80.96L164.874,81.25L165.01,81.395L165.147,81.54L165.284,81.684L165.421,81.829L165.558,81.974L165.804,82.232L165.804,89.977L164.194,88.457L163.253,87.569L162.787,87.129L162.325,86.693L161.868,86.263L161.644,86.053L161.59,86.09L161.512,86.143L161.434,86.197L161.355,86.252L161.277,86.306L161.12,86.416L160.962,86.527L160.805,86.639L160.647,86.751L160.488,86.863L160.33,86.975L160.171,87.087L160.012,87.198L159.932,87.254L159.852,87.309L159.772,87.364L159.692,87.419L159.612,87.474L159.546,87.518L159.546,93.596L165.804,93.596L165.804,101.793L165.103,101.05L165.08,101.026L165.057,101.003L165.035,100.98L165.012,100.957L164.99,100.935L164.967,100.913L164.945,100.891L164.923,100.87L164.901,100.849L164.879,100.829L164.857,100.809L164.835,100.79L164.814,100.77L164.792,100.752L164.771,100.733L164.749,100.715L164.728,100.697L164.707,100.68L164.686,100.663L164.665,100.646L164.644,100.63L164.624,100.614L164.603,100.598L164.583,100.583L164.562,100.568L164.542,100.553L164.521,100.539L164.501,100.525L164.481,100.511L164.461,100.498L164.441,100.485L164.422,100.472L164.402,100.459L164.382,100.447L164.363,100.435L164.343,100.423L164.324,100.412L164.304,100.401L164.285,100.39L164.266,100.379L164.247,100.369L164.227,100.359L164.209,100.349L164.19,100.339L164.171,100.33L164.152,100.32L164.133,100.312L164.114,100.303L164.096,100.294L164.077,100.286L164.058,100.278L164.04,100.27L164.021,100.263L164.003,100.255L163.984,100.248L163.966,100.241L163.948,100.234L163.929,100.228L163.911,100.221L163.893,100.215L163.875,100.209L163.838,100.197L163.801,100.187L163.765,100.176L163.728,100.167L163.692,100.158L163.655,100.149L163.619,100.142L163.582,100.134L163.545,100.128L163.508,100.121L163.471,100.116L163.434,100.111L163.397,100.106L163.36,100.101L163.322,100.097L163.284,100.094L163.246,100.091L163.208,100.088L163.169,100.085L163.13,100.083L163.091,100.081L163.052,100.08L163.012,100.078L162.972,100.077L162.933,100.076L162.851,100.075L162.769,100.075L162.685,100.074L162.6,100.074L159.547,100.074L159.547,106.641L159.547,106.882L159.548,107.118L159.548,107.233L159.549,107.348L159.551,107.461L159.552,107.573L159.554,107.683L159.557,107.793L159.56,107.901L159.563,108.008L159.568,108.114L159.57,108.166L159.573,108.218L159.575,108.27L159.578,108.322L159.581,108.373L159.585,108.424L159.588,108.475L159.592,108.526L159.596,108.576L159.601,108.626L159.605,108.676L159.61,108.725L159.615,108.775L159.62,108.824L159.626,108.872L159.631,108.921L159.637,108.969L159.644,109.017L159.65,109.065L159.657,109.113L159.664,109.16L159.672,109.207L159.68,109.254L159.688,109.301L159.696,109.348L159.705,109.394L159.714,109.44L159.724,109.486L159.734,109.532L159.744,109.578L159.754,109.623L159.765,109.668L159.776,109.714L159.788,109.759L159.8,109.803L159.812,109.848L159.825,109.892L159.838,109.937L159.852,109.981L159.866,110.025L159.88,110.069L159.895,110.113L159.91,110.157L159.926,110.201L159.942,110.244L159.959,110.288L159.976,110.331L159.993,110.374L160.011,110.418L160.03,110.461L160.049,110.504L160.068,110.547L160.088,110.59L160.109,110.633L160.13,110.676L160.152,110.719L160.174,110.761L160.196,110.804L160.22,110.847L160.243,110.89L160.268,110.933L160.293,110.975L160.318,111.018L160.344,111.061L160.371,111.104L160.398,111.147L160.426,111.19L160.455,111.232L160.484,111.275L160.514,111.318L160.545,111.361L160.576,111.404L160.608,111.448L160.64,111.491L160.674,111.534L160.708,111.577L160.742,111.621L160.778,111.664L160.814,111.708L160.851,111.751L160.889,111.795L160.927,111.838L160.966,111.882L161.006,111.926L161.047,111.97L161.088,112.014L161.131,112.059L161.174,112.103L161.218,112.147L161.262,112.192L161.308,112.237L161.354,112.281L161.402,112.326L161.45,112.371L161.499,112.416L161.549,112.462L161.599,112.507L161.651,112.552L161.703,112.598L161.757,112.644L161.811,112.69L162.699,113.43L152.426,113.43L150.819,111.691L150.898,111.444L150.909,111.409L150.924,111.359L150.943,111.296L150.965,111.22L150.991,111.131L151.019,111.03L151.034,110.975L151.05,110.917L151.067,110.857L151.083,110.793L151.101,110.727L151.118,110.659L151.136,110.587L151.155,110.514L151.174,110.438L151.193,110.359L151.212,110.278L151.232,110.195L151.251,110.11L151.271,110.023L151.291,109.933L151.311,109.842L151.331,109.748L151.35,109.653L151.37,109.556L151.39,109.457L151.409,109.356L151.429,109.254L151.448,109.15L151.466,109.045L151.485,108.938L151.503,108.83L151.521,108.72L151.538,108.61L151.555,108.497L151.571,108.384L151.587,108.27L151.602,108.155L151.617,108.038L151.624,107.98L151.63,107.921L151.637,107.862L151.644,107.803L151.65,107.744L151.656,107.684L151.662,107.624L151.668,107.564L151.673,107.504L151.678,107.444L151.684,107.384L151.688,107.323L151.693,107.263L151.698,107.202L151.702,107.141L151.706,107.08L151.709,107.019L151.713,106.958L151.716,106.897L151.719,106.835L151.722,106.774L151.724,106.712L151.726,106.651L151.728,106.589L151.73,106.527L151.731,106.466L151.732,106.404L151.733,106.342L151.734,106.281L151.734,106.218L151.734,89.615L151.68,89.594L151.375,89.476L151.068,89.358L150.761,89.239L150.452,89.121L150.143,89.002L149.524,88.765L148.905,88.528L148.595,88.409L148.287,88.291L147.979,88.172L147.672,88.053L147.366,87.934L146.378,87.548L147.415,86.825L147.849,86.522L148.717,85.916L149.583,85.31L150.448,84.703L151.313,84.097L152.177,83.491L153.904,82.278L155.631,81.066L156.495,80.459L157.359,79.853L158.225,79.247L159.092,78.64L159.959,78.034L160.394,77.73L161.105,77.235L161.475,77.623ZM162.773,99.29L162.86,99.291L162.947,99.292L162.992,99.293L163.036,99.294L163.081,99.296L163.126,99.297L163.171,99.3L163.216,99.302L163.262,99.305L163.307,99.308L163.353,99.312L163.399,99.317L163.446,99.321L163.492,99.327L163.539,99.333L163.586,99.34L163.634,99.347L163.681,99.355L163.729,99.364L163.777,99.373L163.825,99.383L163.873,99.394L163.922,99.406L163.97,99.419L164.019,99.433L164.068,99.448L164.117,99.463L164.142,99.471L164.167,99.48L164.192,99.488L164.217,99.497L164.241,99.506L164.266,99.516L164.291,99.526L164.316,99.536L164.341,99.546L164.366,99.556L164.391,99.567L164.416,99.578L164.441,99.59L164.466,99.601L164.491,99.613L164.517,99.625L164.542,99.638L164.567,99.651L164.592,99.664L164.617,99.677L164.643,99.691L164.668,99.705L164.693,99.719L164.719,99.734L164.744,99.749L164.769,99.764L164.795,99.779L164.82,99.795L164.845,99.811L164.871,99.828L164.896,99.845L164.922,99.862L164.947,99.879L164.973,99.897L164.998,99.915L165.02,99.931L165.02,94.38L158.762,94.38L158.762,87.099L159.015,86.93L159.093,86.878L159.171,86.825L159.249,86.771L159.328,86.718L159.406,86.664L159.484,86.609L159.563,86.555L159.72,86.445L159.877,86.334L160.035,86.222L160.193,86.11L160.351,85.998L160.51,85.886L160.669,85.774L160.828,85.663L160.907,85.607L160.987,85.552L161.067,85.497L161.147,85.442L161.227,85.387L161.307,85.333L161.387,85.279L161.727,85.052L162.406,85.691L162.863,86.122L163.325,86.558L163.791,86.998L164.733,87.887L165.02,88.157L165.02,82.546L164.99,82.514L164.851,82.369L164.714,82.224L164.576,82.078L164.439,81.933L164.302,81.788L164.03,81.497L163.758,81.207L163.487,80.916L162.946,80.336L162.676,80.046L162.405,79.756L162.135,79.467L161.863,79.177L161.592,78.888L161.455,78.743L161.319,78.598L161.182,78.454L161.045,78.309L161.001,78.263L160.843,78.374L160.409,78.677L159.541,79.283L158.675,79.889L157.81,80.496L156.945,81.102L156.081,81.708L154.354,82.921L152.627,84.133L151.763,84.74L150.899,85.346L150.033,85.952L149.166,86.559L148.299,87.165L148.032,87.351L148.262,87.44L148.569,87.558L148.877,87.677L149.186,87.795L149.805,88.032L150.424,88.27L150.733,88.388L151.042,88.507L151.351,88.625L151.658,88.744L151.964,88.863L152.518,89.079L152.518,106.22L152.518,106.285L152.518,106.35L152.517,106.416L152.516,106.481L152.514,106.546L152.513,106.611L152.511,106.677L152.508,106.742L152.506,106.807L152.503,106.871L152.5,106.936L152.496,107.001L152.493,107.065L152.489,107.129L152.485,107.194L152.48,107.258L152.476,107.321L152.471,107.385L152.466,107.448L152.46,107.512L152.455,107.575L152.449,107.638L152.443,107.7L152.437,107.763L152.43,107.825L152.424,107.887L152.417,107.949L152.41,108.011L152.403,108.072L152.395,108.133L152.38,108.254L152.364,108.375L152.348,108.494L152.331,108.612L152.313,108.728L152.296,108.843L152.277,108.957L152.258,109.07L152.239,109.181L152.22,109.29L152.2,109.398L152.18,109.504L152.16,109.608L152.139,109.711L152.119,109.811L152.098,109.91L152.078,110.007L152.057,110.102L152.037,110.194L152.016,110.285L151.996,110.373L151.976,110.459L151.956,110.543L151.936,110.624L151.916,110.703L151.897,110.78L151.878,110.853L151.86,110.925L151.842,110.993L151.825,111.059L151.808,111.122L151.791,111.182L151.775,111.24L151.746,111.345L151.719,111.439L151.703,111.492L152.769,112.646L160.607,112.646L160.566,112.603L160.519,112.554L160.473,112.505L160.428,112.457L160.383,112.408L160.34,112.359L160.297,112.31L160.254,112.261L160.213,112.212L160.172,112.163L160.132,112.114L160.093,112.065L160.054,112.016L160.017,111.967L159.979,111.917L159.943,111.868L159.907,111.819L159.872,111.77L159.838,111.72L159.804,111.671L159.771,111.622L159.739,111.572L159.708,111.523L159.677,111.473L159.646,111.424L159.617,111.374L159.588,111.324L159.559,111.274L159.532,111.225L159.505,111.175L159.478,111.125L159.452,111.075L159.427,111.025L159.403,110.975L159.379,110.924L159.355,110.874L159.333,110.824L159.31,110.773L159.289,110.723L159.268,110.673L159.247,110.622L159.227,110.571L159.208,110.521L159.189,110.47L159.171,110.419L159.153,110.368L159.136,110.317L159.119,110.266L159.103,110.215L159.087,110.164L159.072,110.112L159.057,110.061L159.043,110.01L159.029,109.958L159.016,109.906L159.003,109.855L158.99,109.803L158.978,109.751L158.967,109.699L158.956,109.647L158.945,109.595L158.935,109.543L158.925,109.491L158.915,109.438L158.906,109.386L158.898,109.333L158.889,109.281L158.881,109.228L158.874,109.175L158.866,109.122L158.859,109.069L158.853,109.016L158.846,108.963L158.84,108.909L158.834,108.856L158.829,108.802L158.824,108.749L158.819,108.695L158.814,108.641L158.81,108.587L158.806,108.532L158.802,108.478L158.798,108.423L158.795,108.369L158.792,108.314L158.789,108.259L158.786,108.204L158.784,108.148L158.779,108.037L158.775,107.925L158.772,107.813L158.77,107.699L158.768,107.585L158.766,107.47L158.765,107.355L158.764,107.238L158.763,107.12L158.763,106.883L158.763,106.641L158.763,99.29L162.6,99.29L162.686,99.29L162.773,99.29Z"/>
        </g>
    </g>
    <g id="Viz-logo" transform="matrix(0.726739,0,0,0.685337,-187.335,-73.0741)">
        <g>
            <path d="M522.728,207.68L518.658,161.924L653.392,117.332L663.979,166.579L628.945,227.153L669.91,216.021L680.492,275.724L535.609,321.111L533.63,310.787C514.686,318.449 487.647,330.526 487.647,330.526L443.241,174.674L505.102,147.156C505.102,147.156 513.248,175.226 522.728,207.68ZM525.557,217.359C528.992,229.103 532.51,241.106 535.808,252.309L561.965,204.823L525.557,217.359Z" style="fill:white;"/>
            <path d="M663.979,166.579L628.945,227.153L669.91,216.021L680.492,275.724L535.609,321.111L533.63,310.787L532.736,311.149L531.831,311.518L530.916,311.892L529.991,312.271L529.058,312.656L528.117,313.045L527.169,313.438L526.215,313.835L524.291,314.639L522.352,315.454L520.403,316.276L518.453,317.104L516.506,317.933L514.57,318.76L512.651,319.584L510.756,320.4L508.89,321.205L507.06,321.998L505.273,322.774L503.535,323.53L501.852,324.264L500.231,324.972L498.679,325.652L497.201,326.301L494.497,327.491L492.168,328.52L490.268,329.361L488.846,329.993L487.647,330.526L443.241,174.674L505.102,147.156L506.522,152.049L508.179,157.749L510.36,165.248L512.985,174.268L515.974,184.532L519.249,195.762L520.968,201.652L522.728,207.68L518.658,161.924L653.392,117.332L663.979,166.579ZM527.506,168.167L530.9,206.315L580.021,189.401L533.5,273.858L526.903,251.435L526.865,251.443L516.445,215.759L515.257,211.701L515.259,211.7L513.081,204.241L511.362,198.349L508.086,187.117L505.096,176.851L502.47,167.829L500.289,160.328L499.894,158.967L453.296,179.695L492.906,318.713L494.04,318.213L495.524,317.562L497.082,316.88L498.708,316.169L500.397,315.432L502.141,314.673L503.935,313.894L505.772,313.099L507.646,312.29L509.55,311.47L511.479,310.643L513.424,309.811L515.381,308.977L517.343,308.145L519.304,307.317L521.257,306.497L523.194,305.687L524.158,305.286L525.114,304.89L526.064,304.497L527.006,304.109L527.941,303.725L528.866,303.347L529.782,302.974L539.78,298.921L541.906,310.01L671.001,269.569L663.424,226.821L611.253,240.999L655.181,165.045L647.327,128.51L527.506,168.167ZM525.557,217.359L528.144,226.199L530.734,235.037L532.021,239.424L533.298,243.774L534.562,248.073L535.808,252.309L561.965,204.823L525.557,217.359Z"/>
        </g>
        <g>
            <path d="M258.11,196.702L326.607,164.078L384.872,241.245L378.9,140.36L448.134,107.424L464.408,335.481L393.249,370.216L258.11,196.702Z" style="fill:white;"/>
            <path d="M464.408,335.481L393.249,370.216L258.11,196.702L326.607,164.078L384.872,241.245L378.9,140.36L448.134,107.424L464.408,335.481ZM387.499,145.865L394.748,268.332L324.158,174.842L271.373,199.983L395.569,359.446L455.742,330.073L440.789,120.514L387.499,145.865Z"/>
        </g>
    </g>
    <defs>
        <linearGradient id="_Linear1" x1="0" y1="0" x2="1" y2="0" gradientUnits="userSpaceOnUse" gradientTransform="matrix(-4.79371,-12.7928,12.7928,-4.79371,701.222,313.273)"><stop offset="0" style="stop-color:rgb(252,240,206);stop-opacity:1"/><stop offset="0.44" style="stop-color:rgb(246,230,119);stop-opacity:1"/><stop offset="1" style="stop-color:rgb(244,228,96);stop-opacity:1"/></linearGradient>
        <linearGradient id="_Linear2" x1="0" y1="0" x2="1" y2="0" gradientUnits="userSpaceOnUse" gradientTransform="matrix(15.0681,101.569,-101.569,15.0681,684.318,319.648)"><stop offset="0" style="stop-color:rgb(170,56,36);stop-opacity:1"/><stop offset="0.7" style="stop-color:rgb(218,151,27);stop-opacity:1"/><stop offset="1" style="stop-color:rgb(203,103,23);stop-opacity:1"/></linearGradient>
        <linearGradient id="_Linear3" x1="0" y1="0" x2="1" y2="0" gradientUnits="userSpaceOnUse" gradientTransform="matrix(0.0482449,-94.1135,-94.1135,-0.0482449,684.56,413.663)"><stop offset="0" style="stop-color:rgb(212,145,30);stop-opacity:1"/><stop offset="0.11" style="stop-color:rgb(233,212,55);stop-opacity:1"/><stop offset="0.24" style="stop-color:rgb(238,229,62);stop-opacity:1"/><stop offset="1" style="stop-color:rgb(242,200,67);stop-opacity:1"/></linearGradient>
        <linearGradient id="_Linear4" x1="0" y1="0" x2="1" y2="0" gradientUnits="userSpaceOnUse" gradientTransform="matrix(1.44643,92.9988,-92.9988,1.44643,612.05,323.017)"><stop offset="0" style="stop-color:rgb(158,25,40);stop-opacity:1"/><stop offset="0.26" style="stop-color:rgb(213,135,38);stop-opacity:1"/><stop offset="0.5" style="stop-color:rgb(232,174,37);stop-opacity:1"/><stop offset="0.79" style="stop-color:rgb(215,131,48);stop-opacity:1"/><stop offset="1" style="stop-color:rgb(207,111,53);stop-opacity:1"/></linearGradient>
        <linearGradient id="_Linear5" x1="0" y1="0" x2="1" y2="0" gradientUnits="userSpaceOnUse" gradientTransform="matrix(0.467423,87.211,87.211,-0.467423,610.412,326.603)"><stop offset="0" style="stop-color:rgb(213,136,24);stop-opacity:1"/><stop offset="0.46" style="stop-color:rgb(228,205,47);stop-opacity:1"/><stop offset="1" style="stop-color:rgb(232,224,54);stop-opacity:1"/></linearGradient>
        <linearGradient id="_Linear6" x1="0" y1="0" x2="1" y2="0" gradientUnits="userSpaceOnUse" gradientTransform="matrix(24.0077,-0.135029,0.135029,24.0077,612.706,365.824)"><stop offset="0" style="stop-color:rgb(238,224,97);stop-opacity:1"/><stop offset="0.54" style="stop-color:rgb(238,211,88);stop-opacity:1"/><stop offset="1" style="stop-color:rgb(239,167,57);stop-opacity:1"/></linearGradient>
        <linearGradient id="_Linear7" x1="0" y1="0" x2="1" y2="0" gradientUnits="userSpaceOnUse" gradientTransform="matrix(-7.91413,-8.43329,8.43329,-7.91413,648.713,362.227)"><stop offset="0" style="stop-color:white;stop-opacity:1"/><stop offset="0.18" style="stop-color:rgb(249,244,188);stop-opacity:1"/><stop offset="0.39" style="stop-color:rgb(243,233,125);stop-opacity:1"/><stop offset="1" style="stop-color:rgb(240,228,99);stop-opacity:1"/></linearGradient>
        <linearGradient id="_Linear8" x1="0" y1="0" x2="1" y2="0" gradientUnits="userSpaceOnUse" gradientTransform="matrix(43.9049,-24.5546,24.5546,43.9049,511.972,317.089)"><stop offset="0" style="stop-color:rgb(237,216,101);stop-opacity:1"/><stop offset="0.45" style="stop-color:rgb(242,228,146);stop-opacity:1"/><stop offset="1" style="stop-color:white;stop-opacity:1"/></linearGradient>
        <linearGradient id="_Linear9" x1="0" y1="0" x2="1" y2="0" gradientUnits="userSpaceOnUse" gradientTransform="matrix(10.1034,-83.2076,83.2076,10.1034,509.935,409.566)"><stop offset="0" style="stop-color:white;stop-opacity:1"/><stop offset="0.09" style="stop-color:rgb(244,238,125);stop-opacity:1"/><stop offset="0.17" style="stop-color:rgb(239,231,74);stop-opacity:1"/><stop offset="0.68" style="stop-color:rgb(238,221,69);stop-opacity:1"/><stop offset="0.85" style="stop-color:rgb(235,197,56);stop-opacity:1"/><stop offset="1" style="stop-color:rgb(231,170,41);stop-opacity:1"/></linearGradient>
        <linearGradient id="_Linear10" x1="0" y1="0" x2="1" y2="0" gradientUnits="userSpaceOnUse" gradientTransform="matrix(25.7816,98.6451,-98.6451,25.7816,538.219,313.149)"><stop offset="0" style="stop-color:rgb(242,212,48);stop-opacity:1"/><stop offset="0.5" style="stop-color:rgb(255,243,185);stop-opacity:1"/><stop offset="1" style="stop-color:rgb(250,212,25);stop-opacity:1"/></linearGradient>
        <linearGradient id="_Linear11" x1="0" y1="0" x2="1" y2="0" gradientUnits="userSpaceOnUse" gradientTransform="matrix(-17.9241,96.0474,-96.0474,-17.9241,532.066,316.212)"><stop offset="0" style="stop-color:rgb(180,59,67);stop-opacity:1"/><stop offset="0.51" style="stop-color:rgb(189,75,65);stop-opacity:1"/><stop offset="1" style="stop-color:rgb(217,125,59);stop-opacity:1"/></linearGradient>
        <linearGradient id="_Linear12" x1="0" y1="0" x2="1" y2="0" gradientUnits="userSpaceOnUse" gradientTransform="matrix(26.9456,-16.0241,16.0241,26.9456,565.715,359.84)"><stop offset="0" style="stop-color:white;stop-opacity:1"/><stop offset="0.47" style="stop-color:rgb(255,255,137);stop-opacity:1"/><stop offset="1" style="stop-color:rgb(255,255,102);stop-opacity:1"/></linearGradient>
        <linearGradient id="_Linear13" x1="0" y1="0" x2="1" y2="0" gradientUnits="userSpaceOnUse" gradientTransform="matrix(-8.02291,-12.1325,12.1325,-8.02291,444.035,318.375)"><stop offset="0" style="stop-color:rgb(247,247,194);stop-opacity:1"/><stop offset="0.45" style="stop-color:rgb(238,238,41);stop-opacity:1"/><stop offset="1" style="stop-color:rgb(235,235,0);stop-opacity:1"/></linearGradient>
        <linearGradient id="_Linear14" x1="0" y1="0" x2="1" y2="0" gradientUnits="userSpaceOnUse" gradientTransform="matrix(33.9353,36.154,-36.154,33.9353,457.556,304.269)"><stop offset="0" style="stop-color:rgb(204,121,46);stop-opacity:1"/><stop offset="0.49" style="stop-color:rgb(188,98,45);stop-opacity:1"/><stop offset="1" style="stop-color:rgb(141,33,42);stop-opacity:1"/></linearGradient>
        <linearGradient id="_Linear15" x1="0" y1="0" x2="1" y2="0" gradientUnits="userSpaceOnUse" gradientTransform="matrix(4.59541,33.1182,-33.1182,4.59541,485.633,380.843)"><stop offset="0" style="stop-color:rgb(228,168,33);stop-opacity:1"/><stop offset="0.61" style="stop-color:rgb(225,159,37);stop-opacity:1"/><stop offset="0.82" style="stop-color:rgb(218,138,45);stop-opacity:1"/><stop offset="1" style="stop-color:rgb(210,115,54);stop-opacity:1"/></linearGradient>
        <linearGradient id="_Linear16" x1="0" y1="0" x2="1" y2="0" gradientUnits="userSpaceOnUse" gradientTransform="matrix(14.8346,-3.43366,3.43366,14.8346,467.978,402.321)"><stop offset="0" style="stop-color:rgb(218,198,35);stop-opacity:1"/><stop offset="0.53" style="stop-color:rgb(224,209,70);stop-opacity:1"/><stop offset="1" style="stop-color:rgb(247,245,191);stop-opacity:1"/></linearGradient>
        <linearGradient id="_Linear17" x1="0" y1="0" x2="1" y2="0" gradientUnits="userSpaceOnUse" gradientTransform="matrix(-0.816861,84.465,-84.465,-0.816861,435.526,327.329)"><stop offset="0" style="stop-color:rgb(230,174,39);stop-opacity:1"/><stop offset="1" style="stop-color:rgb(227,209,46);stop-opacity:1"/></linearGradient>
        <linearGradient id="_Linear18" x1="0" y1="0" x2="1" y2="0" gradientUnits="userSpaceOnUse" gradientTransform="matrix(-0.214627,87.4481,-87.4481,-0.214627,444.246,324.346)"><stop offset="0" style="stop-color:rgb(118,27,38);stop-opacity:1"/><stop offset="0.21" style="stop-color:rgb(186,125,27);stop-opacity:1"/><stop offset="0.37" style="stop-color:rgb(217,170,22);stop-opacity:1"/><stop offset="1" style="stop-color:rgb(199,90,40);stop-opacity:1"/></linearGradient>
        <linearGradient id="_Linear19" x1="0" y1="0" x2="1" y2="0" gradientUnits="userSpaceOnUse" gradientTransform="matrix(24.2326,16.6368,-16.6368,24.2326,449.441,368.905)"><stop offset="0" style="stop-color:rgb(236,225,56);stop-opacity:1"/><stop offset="0.48" style="stop-color:rgb(239,230,96);stop-opacity:1"/><stop offset="1" style="stop-color:rgb(247,243,206);stop-opacity:1"/></linearGradient>
        <linearGradient id="_Linear20" x1="0" y1="0" x2="1" y2="0" gradientUnits="userSpaceOnUse" gradientTransform="matrix(25.0954,23.7152,-23.7152,25.0954,387.027,279.715)"><stop offset="0" style="stop-color:rgb(211,121,42);stop-opacity:1"/><stop offset="1" style="stop-color:rgb(178,79,33);stop-opacity:1"/></linearGradient>
        <linearGradient id="_Linear21" x1="0" y1="0" x2="1" y2="0" gradientUnits="userSpaceOnUse" gradientTransform="matrix(-0.216889,97.6023,-97.6023,-0.216889,374.471,309.786)"><stop offset="0" style="stop-color:rgb(195,76,44);stop-opacity:1"/><stop offset="1" style="stop-color:rgb(216,138,30);stop-opacity:1"/></linearGradient>
        <linearGradient id="_Linear22" x1="0" y1="0" x2="1" y2="0" gradientUnits="userSpaceOnUse" gradientTransform="matrix(-7.36354,-10.8081,10.8081,-7.36354,378.812,297.507)"><stop offset="0" style="stop-color:white;stop-opacity:1"/><stop offset="0.19" style="stop-color:rgb(248,243,191);stop-opacity:1"/><stop offset="0.4" style="stop-color:rgb(241,232,128);stop-opacity:1"/><stop offset="1" style="stop-color:rgb(238,227,100);stop-opacity:1"/></linearGradient>
        <linearGradient id="_Linear23" x1="0" y1="0" x2="1" y2="0" gradientUnits="userSpaceOnUse" gradientTransform="matrix(26.5208,28.0224,-28.0224,26.5208,356.887,281.692)"><stop offset="0" style="stop-color:rgb(173,91,50);stop-opacity:1"/><stop offset="1" style="stop-color:rgb(209,141,34);stop-opacity:1"/></linearGradient>
    </defs>
</svg>
